<?xml version="1.0" encoding="iso-8859-1"?>
<!-- Generator: Adobe Illustrator 19.0.0, SVG Export Plug-In . SVG Version: 6.00 Build 0)  -->
<svg version="1.1" id="Capa_1" xmlns="http://www.w3.org/2000/svg" xmlns:xlink="http://www.w3.org/1999/xlink" x="0px" y="0px"
	 viewBox="0 0 512 512" style="enable-background:new 0 0 512 512;" xml:space="preserve">
<path style="fill:#FAD97E;" d="M422.522,345.359l13.354-12.199c8.478-7.744,8.478-21.096,0-28.839l-13.354-12.198
	c-22.118-20.204-52.27-29.163-81.831-24.317l0,0c-24.95,4.091-43.264,25.652-43.264,50.935l0,0
	c0,25.283,18.315,46.844,43.264,50.935l0,0C370.252,374.523,400.405,365.562,422.522,345.359z"/>
<path style="opacity:0.1;enable-background:new    ;" d="M422.522,345.359l13.354-12.199c8.478-7.744,8.478-21.096,0-28.839
	l-13.354-12.198c-22.118-20.204-52.27-29.163-81.831-24.317l0,0c-24.95,4.091-43.264,25.652-43.264,50.935l0,0
	c0,25.283,18.315,46.844,43.264,50.935l0,0C370.252,374.523,400.405,365.562,422.522,345.359z"/>
<path style="opacity:0.05;enable-background:new    ;" d="M360.425,276.524l-3.64-10.001c-5.35-0.014-10.732,0.404-16.095,1.284l0,0
	c-24.95,4.09-43.264,25.652-43.264,50.935s18.315,46.844,43.264,50.935l0,0c4.837,0.793,9.69,1.21,14.52,1.274
	C369.259,342.54,372.121,308.658,360.425,276.524z"/>
<path style="fill:#F2BA5B;" d="M254.761,247.392c-68.863,25.063-111.358,90.49-110.51,159.839
	c0.117,9.537-5.237,18.299-13.747,22.606l-71.184,36.024c-9.189,4.651-13.926,15.385-10.498,25.096
	c3.757,10.644,15.465,16.157,26.046,12.305l199.586-72.644c62.395-22.71,94.566-91.701,71.856-154.095l-20.072-55.147
	L254.761,247.392z"/>
<path style="fill:#FAD97E;" d="M82.612,351.614l-13.354-12.198c-8.478-7.744-8.478-21.096,0-28.839l13.354-12.198
	c22.118-20.204,52.27-29.163,81.831-24.317l0,0c24.95,4.091,43.264,25.652,43.264,50.935l0,0c0,25.283-18.315,46.844-43.264,50.935
	l0,0C134.883,380.778,104.729,371.818,82.612,351.614z"/>
<path style="fill:#F2BA5B;" d="M82.612,351.614l-13.354-12.198c-8.478-7.744-8.478-21.096,0-28.839l13.354-12.198
	c22.118-20.204,52.27-29.163,81.831-24.317l0,0c24.95,4.091,43.264,25.652,43.264,50.935l0,0c0,25.283-18.315,46.844-43.264,50.935
	l0,0C134.883,380.778,104.729,371.818,82.612,351.614z"/>
<path style="opacity:0.05;enable-background:new    ;" d="M346.312,276.524l-20.072-55.148l-71.479,26.016
	c-24.534,8.93-45.698,23.002-62.77,40.529c-7.343-7.115-16.83-12.103-27.547-13.86l0,0c-11.629-1.907-23.348-1.667-34.634,0.543
	c27.227,52.543,86.353,88.953,154.921,88.953c22.508,0,43.994-3.93,63.674-11.059C355.704,328.464,355.564,301.947,346.312,276.524z
	"/>
<ellipse style="fill:#F2BA5B;" cx="293.374" cy="190.506" rx="170.917" ry="154.107"/>
<path style="opacity:0.05;enable-background:new    ;" d="M446.476,121.957c6.176,15.928,9.545,33.044,9.545,50.872
	c0,85.11-76.522,154.105-170.917,154.105c-67.079,0-125.122-34.847-153.103-85.554c23.309,60.111,86.749,103.234,161.371,103.234
	c94.394,0,170.917-68.996,170.917-154.106C464.289,165.88,457.87,142.605,446.476,121.957z"/>
<path style="fill:#FC8063;" d="M364.355,237.418h-35.693c-9.806,0-17.755-7.949-17.755-17.755v-20.72
	c0-16.913,15.837-29.359,32.27-25.365l0,0c17.476,4.249,32.271,15.823,40.604,31.759l0,0
	C391.413,219.936,380.825,237.418,364.355,237.418z"/>
<g style="opacity:0.1;">
	<path d="M239.232,391.743c-0.819,0-1.652-0.135-2.47-0.42c-3.911-1.364-5.976-5.641-4.612-9.552l5.491-15.745
		c1.364-3.911,5.64-5.977,9.551-4.612c3.911,1.364,5.976,5.641,4.612,9.552l-5.491,15.745
		C245.235,389.805,242.334,391.743,239.232,391.743z"/>
	<path d="M263.316,414.097c-0.819,0-1.652-0.135-2.47-0.42c-3.911-1.364-5.976-5.641-4.612-9.552l5.491-15.744
		c1.364-3.911,5.641-5.977,9.551-4.612c3.911,1.364,5.976,5.641,4.612,9.552l-5.491,15.744
		C269.319,412.159,266.417,414.097,263.316,414.097z"/>
	<path d="M299.801,391.743c-0.819,0-1.652-0.135-2.47-0.42c-3.911-1.364-5.976-5.641-4.612-9.552l5.491-15.745
		c1.364-3.911,5.641-5.977,9.551-4.612c3.911,1.364,5.976,5.641,4.612,9.552l-5.491,15.745
		C305.803,389.805,302.901,391.743,299.801,391.743z"/>
</g>
<path d="M293.373,28.902c-2.58,0-5.144,0.061-7.698,0.16C272.927,11.281,251.938,0,231.027,0c-4.142,0-7.5,3.357-7.5,7.5
	s3.358,7.5,7.5,7.5c13.191,0,26.466,5.89,36.328,15.627c-86.09,11.444-152.398,78.776-152.398,159.882
	c0,27.062,7.41,52.853,20.671,75.576c-21.579,2.662-41.833,11.924-58.073,26.758L64.201,305.04c-5.592,5.108-8.8,12.383-8.8,19.957
	s3.208,14.849,8.8,19.958l7.686,7.021c1.438,1.313,3.25,1.962,5.056,1.962c2.033,0,4.06-0.822,5.54-2.441
	c2.793-3.059,2.579-7.803-0.479-10.597l-7.686-7.02c-2.526-2.308-3.917-5.462-3.917-8.883s1.391-6.575,3.916-8.883l13.354-12.198
	c15.809-14.44,36.05-22.716,57.358-23.553c14.213,19.267,32.939,35.703,55.046,47.977c-1.504,20.224-16.528,36.858-36.844,40.189
	c-20.086,3.294-40.933-0.361-58.7-10.29c-3.614-2.022-8.185-0.728-10.206,2.888c-2.021,3.616-0.728,8.186,2.888,10.206
	c12.611,7.047,26.55,11.376,40.811,12.825c-0.936,7.702-1.366,15.463-1.272,23.166c0.081,6.608-3.701,12.819-9.634,15.821
	l-71.185,36.024c-12.713,6.435-18.811,21.174-14.183,34.284c2.487,7.046,7.576,12.683,14.329,15.872
	c3.769,1.78,7.795,2.676,11.839,2.675c3.202,0,6.415-0.562,9.517-1.691l128.48-46.763c-1.787,8.937-5.383,16.384-10.958,22.886
	c-2.696,3.145-2.333,7.879,0.812,10.575c1.415,1.213,3.15,1.807,4.878,1.807c2.113,0,4.214-0.889,5.697-2.618
	c10.417-12.149,14.407-25.858,15.551-38.465l29.011-10.56c-1.204,11.76-5.068,21.103-11.876,29.042
	c-2.696,3.145-2.333,7.879,0.812,10.575c1.415,1.213,3.15,1.807,4.878,1.807c2.113,0,4.213-0.888,5.697-2.618
	c12.082-14.091,15.52-30.281,15.896-44.413l10.709-3.898c30.049-10.938,54.325-32.458,68.935-59.757
	c3.593,0.366,7.181,0.564,10.754,0.564c26.084,0,51.258-9.662,70.872-27.578l13.354-12.198c5.593-5.108,8.8-12.383,8.8-19.957
	s-3.208-14.849-8.8-19.957l-8.129-7.425c3.723-4.229,7.246-8.644,10.533-13.251c2.405-3.373,1.621-8.057-1.751-10.462
	c-3.372-2.404-8.056-1.622-10.461,1.751c-4.311,6.045-9.068,11.729-14.195,17.055c-0.106,0.104-0.214,0.203-0.315,0.314
	c-0.031,0.034-0.056,0.07-0.086,0.104c-18.086,18.649-40.883,32.705-66.303,41.14c-0.227,0.065-0.45,0.14-0.669,0.226
	c-17.711,5.797-36.672,8.878-56.187,8.878c-5.014,0-10.079-0.207-15.055-0.614c-4.131-0.343-7.749,2.733-8.088,6.862
	c-0.338,4.128,2.734,7.749,6.862,8.087c5.382,0.441,10.859,0.665,16.28,0.665c16.863,0,33.354-2.133,49.093-6.191
	c-1.833,7.066-4.329,13.874-7.427,20.35c-0.119,0.222-0.227,0.45-0.324,0.686c-12.615,25.929-34.898,46.447-62.825,56.612
	l-6.242,2.272c-0.029-0.288-0.057-0.58-0.087-0.863c-0.434-4.12-4.125-7.118-8.244-6.674c-4.119,0.434-7.107,4.125-6.674,8.244
	c0.166,1.574,0.294,3.104,0.4,4.609l-29.001,10.556c-0.142-2.277-0.337-4.457-0.553-6.516c-0.434-4.12-4.129-7.108-8.244-6.674
	c-4.119,0.434-7.107,4.125-6.674,8.244c0.382,3.632,0.59,7.061,0.653,10.34L72.305,496.214c-3.229,1.176-6.715,1.015-9.82-0.452
	c-3.105-1.467-5.446-4.06-6.59-7.301c-2.127-6.027,0.802-12.867,6.813-15.91l71.185-36.022c10.999-5.567,18.01-17.103,17.86-29.389
	c-0.091-7.489,0.363-15.04,1.337-22.525c4.201-0.175,8.4-0.599,12.569-1.283c25.198-4.132,44.327-23.535,48.634-47.887
	c10.852,4.85,22.372,8.754,34.453,11.571c0.573,0.134,1.146,0.198,1.71,0.198c3.407,0,6.491-2.338,7.298-5.799
	c0.94-4.033-1.567-8.066-5.601-9.007c-14.39-3.356-27.908-8.379-40.333-14.796c-0.432-0.286-0.893-0.53-1.38-0.722
	c-22.592-11.934-41.481-28.515-55.27-48.121c-0.151-0.237-0.311-0.468-0.487-0.686c-15.767-22.695-24.725-49.385-24.725-77.576
	c0-80.838,73.309-146.605,163.417-146.605s163.417,65.768,163.417,146.605c0,19.157-4.057,37.783-12.057,55.362
	c-1.716,3.77-0.051,8.217,3.719,9.933c3.771,1.717,8.217,0.052,9.933-3.72c8.895-19.543,13.405-40.26,13.405-61.575
	C471.789,101.398,391.752,28.902,293.373,28.902z M358.945,340.88c23.876-8.521,45.534-21.67,63.458-38.702l8.414,7.68
	c2.526,2.308,3.917,5.462,3.917,8.883s-1.391,6.575-3.917,8.883l-13.354,12.198c-17.845,16.301-41.048,24.631-64.872,23.555
	C355.361,356.155,357.506,348.637,358.945,340.88z M344.95,166.293c-10.083-2.451-20.546-0.179-28.704,6.232
	c-8.159,6.413-12.838,16.043-12.838,26.419v20.721c0,13.926,11.329,25.255,25.255,25.255h35.693
	c10.381,0,19.789-5.302,25.167-14.182c5.378-8.88,5.717-19.674,0.907-28.872C381.096,184.016,364.519,171.051,344.95,166.293z
	 M376.691,222.969c-2.636,4.352-7.247,6.951-12.336,6.951h-35.693c-5.655,0-10.255-4.601-10.255-10.255v-20.721
	c0-5.745,2.591-11.076,7.107-14.626c3.326-2.614,7.341-3.984,11.457-3.984c1.475,0,2.963,0.176,4.436,0.534
	c15.375,3.737,28.397,13.924,35.729,27.945C379.493,213.324,379.327,218.615,376.691,222.969z M412.422,172.826
	c0,4.143,3.358,7.5,7.5,7.5c4.142,0,7.5-3.357,7.5-7.5c0-14.54-11.829-26.369-26.369-26.369c-14.54,0-26.369,11.83-26.369,26.369
	c0,4.143,3.358,7.5,7.5,7.5c4.142,0,7.5-3.357,7.5-7.5c0-6.27,5.101-11.37,11.37-11.37S412.422,166.557,412.422,172.826z
	 M223.527,172.826c0,4.143,3.358,7.5,7.5,7.5c4.142,0,7.5-3.357,7.5-7.5c0-6.27,5.101-11.37,11.37-11.37
	c6.27,0,11.37,5.101,11.37,11.37c0,4.143,3.358,7.5,7.5,7.5s7.5-3.357,7.5-7.5c0-14.54-11.83-26.369-26.369-26.369
	C235.356,146.456,223.527,158.286,223.527,172.826z"/>
<g>
</g>
<g>
</g>
<g>
</g>
<g>
</g>
<g>
</g>
<g>
</g>
<g>
</g>
<g>
</g>
<g>
</g>
<g>
</g>
<g>
</g>
<g>
</g>
<g>
</g>
<g>
</g>
<g>
</g>
</svg>
