<?xml version="1.0" encoding="UTF-8" standalone="no"?>
<!-- Generator: Adobe Illustrator 16.0.0, SVG Export Plug-In . SVG Version: 6.00 Build 0)  -->
<!DOCTYPE svg  PUBLIC '-//W3C//DTD SVG 1.1//EN'  'http://www.w3.org/Graphics/SVG/1.1/DTD/svg11.dtd'>
<svg id="Layer_1" xmlns="http://www.w3.org/2000/svg" xml:space="preserve" height="450px" viewBox="0 0 930 450" width="930px" version="1.1" y="0px" x="0px" xmlns:xlink="http://www.w3.org/1999/xlink" enable-background="new 0 0 930 450">
		<g transform="translate(26.734 116.66)">
			<path d="m51.4-68.6c0-0.1 0-0.2-0.1-0.2-0.1-0.1-0.2-0.1-0.3-0.1h-0.2v0.6h0.2c0.3 0 0.4-0.1 0.4-0.3zm0.4 1.3h-0.3l-0.2-0.4c-0.1-0.2-0.2-0.3-0.3-0.3h-0.2v0.8h-0.3v-1.8h0.5c0.2 0 0.4 0 0.5 0.2 0.1 0.1 0.1 0.2 0.1 0.3s0 0.2-0.1 0.3-0.2 0.1-0.3 0.2c0.1 0 0.2 0.1 0.3 0.3l0.3 0.4zm0.5-0.9c0-0.4-0.1-0.7-0.4-0.9-0.2-0.2-0.5-0.4-0.9-0.4s-0.7 0.1-0.9 0.4c-0.2 0.2-0.4 0.5-0.4 0.9s0.1 0.7 0.4 0.9c0.2 0.2 0.5 0.4 0.9 0.4 0.3 0 0.6-0.1 0.9-0.4 0.3-0.2 0.4-0.5 0.4-0.9zm0.2 0c0 0.4-0.1 0.7-0.4 1s-0.6 0.4-1 0.4-0.7-0.1-1-0.4-0.4-0.6-0.4-1 0.1-0.7 0.4-1 0.6-0.4 1-0.4 0.7 0.1 1 0.4 0.4 0.6 0.4 1z"/>
			<path d="m13.7-63.1h-0.9v-5c0-0.4 0-0.9 0.1-1.5-0.1 0.3-0.2 0.6-0.2 0.7l-2.6 5.8h-0.4l-2.6-5.7c-0.1-0.2-0.1-0.5-0.2-0.8v1.5 5h-0.8v-7.5h1.2l2.3 5.2c0.2 0.4 0.3 0.7 0.3 0.9 0.1-0.4 0.3-0.7 0.4-0.9l2.3-5.2h1.1v7.5z"/>
			<path d="m16.4-63.1h-0.9v-5.4h0.9v5.4zm0.2-7.3c0 0.2-0.1 0.3-0.2 0.4s-0.2 0.2-0.4 0.2-0.3-0.1-0.4-0.2-0.2-0.2-0.2-0.4 0.1-0.3 0.2-0.4 0.2-0.2 0.4-0.2 0.3 0.1 0.4 0.2 0.2 0.2 0.2 0.4z"/>
			<path d="m21.8-63.4c-0.4 0.3-0.9 0.4-1.5 0.4-0.8 0-1.4-0.3-1.9-0.8s-0.7-1.1-0.7-1.9c0-0.9 0.3-1.6 0.8-2.1s1.2-0.8 2-0.8c0.5 0 0.9 0.1 1.2 0.3v0.9c-0.4-0.3-0.8-0.4-1.3-0.4s-1 0.2-1.3 0.6c-0.4 0.4-0.5 0.9-0.5 1.6 0 0.6 0.2 1.1 0.5 1.5s0.8 0.5 1.3 0.5 0.9-0.2 1.3-0.5v0.7h0.1z"/>
			<path d="m25.8-67.6c-0.2-0.1-0.4-0.2-0.7-0.2s-0.6 0.2-0.9 0.5c-0.3 0.4-0.4 0.8-0.4 1.5v2.7h-0.9v-5.4h0.9v1.1c0.1-0.4 0.3-0.7 0.6-0.9 0.2-0.2 0.5-0.3 0.8-0.3 0.2 0 0.4 0 0.5 0.1l0.1 0.9z"/>
			<path d="m30.6-65.8c0-0.7-0.2-1.2-0.5-1.6-0.3-0.3-0.7-0.5-1.3-0.5-0.5 0-1 0.2-1.3 0.5-0.3 0.4-0.5 0.9-0.5 1.6 0 0.6 0.2 1.1 0.5 1.5s0.8 0.5 1.3 0.5c0.6 0 1-0.2 1.3-0.5 0.4-0.3 0.5-0.8 0.5-1.5m0.9 0c0 0.9-0.2 1.5-0.7 2.1-0.5 0.5-1.1 0.8-1.9 0.8s-1.4-0.3-1.9-0.8-0.7-1.2-0.7-2c0-0.9 0.3-1.6 0.8-2.2 0.5-0.5 1.1-0.7 1.9-0.7s1.4 0.2 1.9 0.7c0.4 0.5 0.6 1.2 0.6 2.1"/>
			<path d="m35.7-64.6c0 0.4-0.2 0.8-0.5 1.1-0.4 0.3-0.8 0.5-1.5 0.5-0.5 0-1-0.1-1.3-0.3v-0.9c0.4 0.3 0.9 0.5 1.4 0.5 0.7 0 1-0.2 1-0.7 0-0.2-0.1-0.4-0.2-0.5-0.2-0.1-0.4-0.3-0.9-0.5-0.4-0.2-0.8-0.4-1-0.6s-0.3-0.6-0.3-1 0.2-0.8 0.5-1.1c0.4-0.3 0.8-0.4 1.4-0.4 0.4 0 0.8 0.1 1.1 0.3v0.9c-0.4-0.3-0.8-0.4-1.2-0.4-0.3 0-0.5 0.1-0.7 0.2s-0.3 0.3-0.3 0.5 0.1 0.4 0.2 0.6c0.1 0.1 0.4 0.3 0.8 0.4 0.5 0.2 0.8 0.4 1 0.6 0.4 0.1 0.5 0.4 0.5 0.8"/>
			<path d="m41-65.8c0-0.7-0.2-1.2-0.5-1.6-0.3-0.3-0.7-0.5-1.3-0.5-0.5 0-1 0.2-1.3 0.5-0.3 0.4-0.5 0.9-0.5 1.6 0 0.6 0.2 1.1 0.5 1.5s0.8 0.5 1.3 0.5c0.6 0 1-0.2 1.3-0.5s0.5-0.8 0.5-1.5m0.9 0c0 0.9-0.2 1.5-0.7 2.1-0.5 0.4-1.2 0.7-2 0.7s-1.4-0.3-1.9-0.8-0.7-1.2-0.7-2c0-0.9 0.3-1.6 0.8-2.2 0.5-0.5 1.1-0.7 1.9-0.7s1.4 0.2 1.9 0.7c0.4 0.6 0.7 1.3 0.7 2.2"/>
			<path d="m45.6-70.3c-0.2-0.1-0.4-0.1-0.6-0.1-0.6 0-0.9 0.4-0.9 1.1v0.8h1.3v0.7h-1.3v4.6h-0.9v-4.6h-0.9v-0.7h0.9v-0.9c0-0.6 0.2-1.1 0.5-1.4s0.7-0.4 1.2-0.4c0.3 0 0.5 0 0.6 0.1v0.8h0.1z"/>
			<path d="m49-63.2c-0.2 0.1-0.5 0.2-0.8 0.2-0.9 0-1.4-0.5-1.4-1.6v-3.2h-0.9v-0.7h0.9v-1.3c0.3-0.1 0.6-0.2 0.9-0.3v1.6h1.3v0.7h-1.3v3c0 0.4 0.1 0.6 0.2 0.8s0.3 0.2 0.6 0.2c0.2 0 0.4-0.1 0.6-0.2v0.8h-0.1z"/>
		</g>
		<g transform="translate(0 160.41)">
			<path d="m29.4-86c0 0.4-0.1 0.8-0.5 1.1-0.3 0.3-0.7 0.5-1.1 0.5s-0.8-0.2-1.1-0.5-0.4-0.7-0.4-1.1 0.1-0.8 0.4-1.1 0.6-0.5 1.1-0.5c0.4 0 0.8 0.2 1.1 0.5 0.4 0.3 0.5 0.7 0.5 1.1"/>
			<path d="m48.6-84.8h-2.8l-10.1-15.7-0.6-1.2h-0.1c0.1 0.4 0.1 1.3 0.1 2.7v14.2h-2.3v-19.7h3l9.8 15.5c0.4 0.6 0.7 1 0.8 1.3h0.1c-0.1-0.6-0.1-1.5-0.1-2.9v-13.8h2.3l-0.1 19.6z"/>
			<path d="m63.4-84.8h-10.4v-19.7h10v2.1h-7.7v6.5h7.1v2.1h-7.1v6.9h8.1v2.1z"/>
			<path d="m79.2-102.3h-5.7v17.6h-2.3v-17.6h-5.7v-2.1h13.6v2.1h0.1z"/>
		</g>
		<g transform="translate(.81013)">
				<linearGradient id="SVGID_1_" y2="704.78" gradientUnits="userSpaceOnUse" x2="-3.6807" gradientTransform="matrix(45.608 0 0 -81.335 220.44 57370)" y1="705.14" x1="-3.6807">
				<stop stop-color="#0994DC" offset="0"/>
				<stop stop-color="#66CEF5" offset=".35"/>
				<stop stop-color="#127BCA" offset=".8462"/>
				<stop stop-color="#127BCA" offset="1"/>
			</linearGradient>
			<path d="m47 22.1c2.2 6.8 3.1 18.9 9.6 18.9 0.5 0 1 0 1.5-0.1-5.9-1.4-6.6-13.4-10.2-19.6-0.3 0.2-0.6 0.5-0.9 0.8" fill="url(#SVGID_1_)"/>
				<linearGradient id="SVGID_2_" y2="704.51" gradientUnits="userSpaceOnUse" x2="-3.5665" gradientTransform="matrix(47.869 0 0 -83.408 224.4 58809)" y1="704.87" x1="-3.5665">
				<stop stop-color="#0E76BC" offset="0"/>
				<stop stop-color="#36AEE8" offset=".36"/>
				<stop stop-color="#00ADEF" offset=".8462"/>
				<stop stop-color="#00ADEF" offset="1"/>
			</linearGradient>
			<path d="m47.9 21.3c3.6 6.2 4.3 18.2 10.2 19.6 0.5-0.1 0.9-0.2 1.4-0.4-5.3-2.6-6.8-14.2-10.9-19.8-0.2 0.1-0.5 0.3-0.7 0.6" fill="url(#SVGID_2_)"/>
			<path d="m53.1 17.6c-0.5 0-1 0-1.5 0.1-1.3 0.2-2.6 0.8-4 1.7 0.4 0.4 0.7 0.8 1 1.2 1.4-1.1 2.7-2 4.1-2.5 0.5-0.2 1-0.3 1.5-0.4-0.3-0.1-0.7-0.1-1.1-0.1" fill="#14559A"/>
				<linearGradient id="SVGID_3_" y2="704.61" gradientUnits="userSpaceOnUse" x2="-4.1856" gradientTransform="matrix(45.452 0 0 -84.5 249.98 59556)" y1="704.32" x1="-4.1856">
				<stop stop-color="#1C63B7" offset="0"/>
				<stop stop-color="#33BDF2" offset=".5"/>
				<stop stop-color="#33BDF2" stop-opacity=".4196" offset="1"/>
			</linearGradient>
			<path d="m63.6 38.1c0.5-0.4 1.1-0.9 1.6-1.4-2.3-6.8-3.1-19.1-9.6-19.1-0.5 0-0.9 0-1.4 0.1 6 1.5 6.8 14.4 9.4 20.4" fill="url(#SVGID_3_)"/>
			<path d="m54.2 17.7c-0.4-0.1-0.8-0.1-1.2-0.1h2.6c-0.4 0-0.9 0-1.4 0.1" fill="#3092C4"/>
			<path d="m63.5 39.5c-0.3-0.2-0.5-0.5-0.7-0.8-1.1 0.8-2.2 1.4-3.3 1.8 0.4 0.2 0.8 0.3 1.2 0.4 0.3 0.1 0.7 0.1 1 0.1 1.2 0 2.2-0.1 3-0.5-0.4-0.3-0.8-0.6-1.2-1" fill="#1969BC"/>
				<linearGradient id="SVGID_4_" y2="704.06" gradientUnits="userSpaceOnUse" x2="-4.1197" gradientTransform="matrix(45.01 0 0 -86.598 243.59 61015)" y1="704.42" x1="-4.1197">
				<stop stop-color="#166AB8" offset="0"/>
				<stop stop-color="#36AEE8" offset=".4"/>
				<stop stop-color="#0798DD" offset=".8462"/>
				<stop stop-color="#0798DD" offset="1"/>
			</linearGradient>
			<path d="m52.7 18.1c5.3 2.8 5.8 15.4 10.1 20.6l0.9-0.6c-2.7-5.9-3.4-18.9-9.4-20.4-0.6 0.1-1.1 0.2-1.6 0.4" fill="url(#SVGID_4_)"/>
				<linearGradient id="SVGID_5_" y2="703.54" gradientUnits="userSpaceOnUse" x2="-2.9464" gradientTransform="matrix(58.351 0 0 -92.082 227.62 64830)" y1="703.9" x1="-2.9464">
				<stop stop-color="#124379" offset="0"/>
				<stop stop-color="#1487CB" offset=".39"/>
				<stop stop-color="#165197" offset=".7802"/>
				<stop stop-color="#165197" offset="1"/>
			</linearGradient>
			<path d="m48.6 20.6c4.1 5.6 5.6 17.2 10.9 19.8 1.1-0.4 2.2-1 3.3-1.8-4.3-5.1-4.7-17.8-10.1-20.6-1.3 0.6-2.7 1.5-4.1 2.6" fill="url(#SVGID_5_)"/>
				<linearGradient id="SVGID_6_" y2="720.77" gradientUnits="userSpaceOnUse" x2="-7.8731" gradientTransform="matrix(19.418 0 0 -30.922 199.92 22312)" y1="720.77" x1="-8.1158">
				<stop stop-color="#33BDF2" stop-opacity=".698" offset="0"/>
				<stop stop-color="#1DACD8" offset="1"/>
			</linearGradient>
			<path d="m44.4 21.9c-0.6 1.5-1.3 3.4-2.1 5.8 1.6-2.2 3.1-4.1 4.7-5.7-0.2-0.7-0.4-1.3-0.7-1.8-0.6 0.5-1.2 1.1-1.9 1.7" fill="url(#SVGID_6_)"/>
			<path d="m46.9 19.8c-0.2 0.1-0.4 0.3-0.6 0.4 0.2 0.5 0.5 1.2 0.7 1.8 0.3-0.3 0.6-0.5 0.8-0.8-0.2-0.5-0.5-0.9-0.9-1.4" fill="#2B74B1"/>
			<path d="m47.6 19.4c-0.2 0.1-0.4 0.3-0.7 0.4 0.3 0.4 0.7 0.9 1 1.4 0.2-0.2 0.5-0.4 0.7-0.6-0.3-0.4-0.7-0.9-1-1.2" fill="#125A9E"/>
				<linearGradient id="SVGID_7_" y2="703.25" gradientUnits="userSpaceOnUse" x2="-2.9229" gradientTransform="matrix(79.142 0 0 -98.679 308.99 69412)" y1="703.01" x1="-2.9229">
				<stop stop-color="#136AB4" offset="0"/>
				<stop stop-color="#59CAF5" stop-opacity=".549" offset=".6"/>
				<stop stop-color="#59CAF5" stop-opacity=".2353" offset="1"/>
			</linearGradient>
			<path d="m84 17c-3 11.6-9.3 21-14.6 23.4-0.1 0-0.2 0.1-0.3 0.1h-0.1-0.1-0.1-0.1-0.1-0.1-0.1-0.1-0.1-0.1-0.1c0.2 0.1 0.5 0.1 0.8 0.1 5 0 10.1-9 18.4-23.9l-3.2 0.3z" fill="url(#SVGID_7_)"/>
				<linearGradient id="SVGID_8_" y2="703.1" gradientUnits="userSpaceOnUse" x2="-1.2554" gradientTransform="matrix(72.023 0 0 -99.161 133.55 69750)" y1="703.1" x1="-1.4981">
				<stop stop-color="#05A1E6" stop-opacity=".2471" offset="0"/>
				<stop stop-color="#05A1E6" offset="1"/>
			</linearGradient>
			<path d="m41.2 18c0.1 0 0.1 0 0 0h0.1 0.1c0.1 0 0.1 0 0.2-0.1h0.1 0.1c0.1 0 0.2 0 0.3-0.1h0.1 0.1 0.2 0.1 0.1 0.2-0.5c-5.6 0-13.4 10.5-16.9 24h0.7c1.1-2 2.1-3.9 3-5.7 2.6-9.8 7.6-16.3 12-18.1" fill="url(#SVGID_8_)"/>
			<path d="m44.4 21.9c0.6-0.6 1.3-1.2 1.9-1.7-0.1-0.3-0.3-0.6-0.5-0.9-0.4 0.7-0.9 1.5-1.4 2.6" fill="#0D82CA"/>
			<path d="m44.9 18.1c0.4 0.3 0.7 0.7 1 1.2l0.3-0.3c-0.4-0.4-0.9-0.7-1.3-0.9-0.1 0-0.1 0 0 0" fill="#0D82CA"/>
				<linearGradient id="SVGID_9_" y2="705.97" gradientUnits="userSpaceOnUse" x2="-2.2901" gradientTransform="matrix(49.051 0 0 -73.822 147.62 52133)" y1="705.65" x1="-2.2901">
				<stop stop-color="#318ED5" offset="0"/>
				<stop stop-color="#38A7E4" offset="1"/>
			</linearGradient>
			<path d="m29.3 35.9c5.2-9.9 7.6-16.2 11.9-17.9-4.4 1.8-9.4 8.3-11.9 17.9" fill="url(#SVGID_9_)"/>
			<path d="m46.2 19l-0.3 0.3c0.2 0.3 0.3 0.6 0.5 0.9 0.2-0.1 0.4-0.3 0.6-0.4-0.3-0.3-0.6-0.5-0.8-0.8" fill="#127BCA"/>
				<linearGradient id="SVGID_10_" y2="709.77" gradientUnits="userSpaceOnUse" x2="-2.6065" gradientTransform="matrix(45.604 0 0 -57.128 155.65 40565)" y1="709.37" x1="-2.6065">
				<stop stop-color="#05A1E6" offset="0"/>
				<stop stop-color="#05A1E6" stop-opacity=".549" offset="1"/>
			</linearGradient>
			<path d="m31.7 41.6s-0.1 0 0 0h-0.1-0.1-0.2c5.2-0.1 7.6-2.8 8.8-6.5 0.9-2.9 1.6-5.3 2.3-7.3-2.2 3.1-4.4 6.7-6.6 10.8-1.1 1.9-2.7 2.8-4.1 3" fill="url(#SVGID_10_)"/>
				<linearGradient id="SVGID_11_" y2="705.14" gradientUnits="userSpaceOnUse" x2="-2.2735" gradientTransform="matrix(52.519 0 0 -81.094 157.42 57205)" y1="704.9" x1="-2.2735">
				<stop stop-color="#1959A6" offset="0"/>
				<stop stop-color="#05A1E6" offset=".5"/>
				<stop stop-color="#7EC5EA" offset=".9176"/>
				<stop stop-color="#7EC5EA" offset="1"/>
			</linearGradient>
			<path d="m31.7 41.5c1.4-0.2 3-1 4.1-3 2.2-4.1 4.4-7.8 6.6-10.8 0.8-2.5 1.4-4.4 2.1-5.8-4.4 4.1-8.8 11-12.8 19.6" fill="url(#SVGID_11_)"/>
			<path d="m29.3 35.9c-0.9 1.8-1.9 3.7-3 5.7h2c0.2-2 0.6-3.9 1-5.7" fill="#05A1E6"/>
				<linearGradient id="SVGID_12_" y2="703.22" gradientUnits="userSpaceOnUse" x2="-1.5014" gradientTransform="matrix(72.677 0 0 -99.005 144.22 69641)" y1="703" x1="-1.4498">
				<stop stop-color="#165096" offset="0"/>
				<stop stop-color="#0D82CA" offset="1"/>
			</linearGradient>
			<path d="m42.9 17.6h-0.1-0.1-0.2-0.1-0.1c-0.1 0-0.2 0-0.3 0.1h-0.1-0.1c-0.1 0-0.1 0-0.2 0.1h-0.1-0.1c-4.3 1.7-6.7 8-11.9 17.9-0.5 1.8-0.8 3.7-1.1 5.7h0.3 1.9 0.7 0.2 0.1 0.1c4-8.6 8.4-15.5 12.7-19.7 0.5-1.1 0.9-1.9 1.5-2.5-0.3-0.5-0.6-0.9-1-1.2h-0.1-0.1-0.1-0.1-0.1-0.1-0.1-0.1-0.1-0.1c-0.1 0-0.2 0-0.3-0.1h-0.1-0.1-0.1c-0.3-0.3-0.3-0.3-0.4-0.3" fill="url(#SVGID_12_)"/>
				<linearGradient id="SVGID_13_" y2="709.01" gradientUnits="userSpaceOnUse" x2="-7.3204" gradientTransform="matrix(32.766 0 0 -57.226 313.53 40591)" y1="708.82" x1="-7.3204">
				<stop stop-color="#05A1E6" offset="0"/>
				<stop stop-color="#0495D6" offset=".8736"/>
				<stop stop-color="#0495D6" offset="1"/>
			</linearGradient>
			<path d="m72.2 23.5c-1 3.2-1.8 5.8-2.5 7.9 2.7-3.7 5.4-8.4 7.9-13.9-2.9 1-4.5 3.1-5.4 6" fill="url(#SVGID_13_)"/>
				<linearGradient id="SVGID_14_" y2="703.18" gradientUnits="userSpaceOnUse" x2="-3.9604" gradientTransform="matrix(60.269 0 0 -96.323 313.09 67774)" y1="703.45" x1="-3.8853">
				<stop stop-color="#38A7E4" stop-opacity=".3294" offset="0"/>
				<stop stop-color="#0E88D3" offset=".9615"/>
				<stop stop-color="#0E88D3" offset="1"/>
			</linearGradient>
			<path d="m69.8 40.2c-0.1 0.1-0.3 0.1-0.4 0.2 5.3-2.4 11.6-11.7 14.6-23.4h-0.6c-7 12.4-9.2 20.7-13.6 23.2" fill="url(#SVGID_14_)"/>
			<path d="m66.3 39.2c1.1-1.4 2.1-3.8 3.4-7.7-1.5 2-3 3.8-4.4 5.2 0.3 0.9 0.6 1.8 1 2.5" fill="#079AE1"/>
			<path d="m66.3 39.2c-0.4 0.5-0.8 0.8-1.3 1.1-0.1 0.1-0.2 0.1-0.3 0.2 0.5 0.3 1 0.4 1.6 0.5h0.3 0.1 0.3 0.1 0.1 0.1 0.1c0.1 0 0.2 0 0.2-0.1-0.2-0.3-0.8-0.9-1.3-1.7" fill="#1969BC"/>
			<path d="m56.6 41c0.5 0 1 0 1.5-0.1s0.9-0.2 1.4-0.4c0.4 0.2 0.8 0.3 1.2 0.4 0.3 0.1 0.7 0.1 1 0.1h-5.1z" fill="#1E5CB3"/>
			<path d="m61.8 41c1.2 0 2.2-0.1 3-0.5 0.5 0.3 1 0.4 1.6 0.5h0.3 0.1 0.1-5.1z" fill="#1E5CB3"/>
			<path d="m66.9 41h0.2 0.1 0.1 0.1 0.1c0.1 0 0.2 0 0.2-0.1 0.2 0.1 0.5 0.1 0.8 0.1h-1.6z" fill="#1D60B5"/>
			<path d="m65.3 36.6c-0.5 0.5-1.1 1-1.6 1.4l-0.9 0.6c0.2 0.3 0.5 0.6 0.7 0.8 0.4 0.4 0.8 0.7 1.3 0.9 0.1-0.1 0.2-0.1 0.3-0.2 0.5-0.3 0.9-0.6 1.3-1.1-0.5-0.5-0.8-1.4-1.1-2.4" fill="#175FAB"/>
				<linearGradient id="SVGID_15_" y2="703.04" gradientUnits="userSpaceOnUse" x2="-3.2261" gradientTransform="matrix(70.282 0 0 -98.11 301.61 69017)" y1="703.29" x1="-3.2261">
				<stop stop-color="#168CD4" offset="0"/>
				<stop stop-color="#1C87CC" offset=".5"/>
				<stop stop-color="#154B8D" offset="1"/>
			</linearGradient>
			<path d="m81.4 17h-3.1-0.5c-0.1 0.2-0.2 0.3-0.2 0.5-2.5 5.4-5.2 10.1-7.9 13.9-1.3 3.9-2.2 6.3-3.4 7.7 0.5 0.8 1.1 1.4 1.7 1.7h0.1 0.1 0.1 0.1 0.1 0.1 0.1 0.1 0.1 0.1 0.1c0.1 0 0.2-0.1 0.3-0.1 0.1-0.1 0.3-0.1 0.4-0.2 4.4-2.5 6.7-10.8 13.6-23.2l-2-0.3z" fill="url(#SVGID_15_)"/>
			<path d="m43.1 17.6h0.1 0.1 0.1c0.1 0 0.2 0 0.3 0.1h0.1 0.1 0.1 0.1 0.1 0.1 0.1 0.1 0.1c0.5 0.2 0.9 0.6 1.4 1 0.2-0.2 0.3-0.3 0.5-0.4-0.9-0.7-2-1-3.2-1 0.1 0.3-0.1 0.3-0.2 0.3" fill="#7DCBEC"/>
			<path d="m46.2 19c0.3 0.2 0.5 0.5 0.7 0.8 0.2-0.2 0.4-0.3 0.7-0.4-0.3-0.3-0.6-0.6-0.9-0.8-0.2 0.1-0.4 0.3-0.5 0.4" fill="#5EC5ED"/>
				<linearGradient id="SVGID_16_" y2="510.6" gradientUnits="userSpaceOnUse" x2="-4.6698" gradientTransform="matrix(32.459 0 0 4.2491 201.07 -2150.8)" y1="510.06" x1="-4.8424">
				<stop stop-color="#97D6EE" offset="0"/>
				<stop stop-color="#55C1EA" offset=".7033"/>
				<stop stop-color="#55C1EA" offset="1"/>
			</linearGradient>
			<path d="m43.1 17.6h0.4c1.2 0 2.2 0.4 3.2 1 1-0.8 2.1-1 3.8-1h-7.9 0.5" fill="url(#SVGID_16_)"/>
				<linearGradient id="SVGID_17_" y2="589.82" gradientUnits="userSpaceOnUse" x2="-6.2866" gradientTransform="matrix(26.472 0 0 7.484 217.94 -4396.9)" y1="590.08" x1="-6.4537">
				<stop stop-color="#7ACCEC" offset="0"/>
				<stop stop-color="#3FB7ED" offset="1"/>
			</linearGradient>
			<path d="m50.4 17.6c-1.6 0-2.8 0.3-3.8 1 0.3 0.2 0.6 0.5 0.9 0.8 1.3-0.9 2.7-1.4 4-1.7 0.5-0.1 1-0.1 1.5-0.1h-2.6z" fill="url(#SVGID_17_)"/>
				<linearGradient id="SVGID_18_" y2="704.71" gradientUnits="userSpaceOnUse" x2="-4.314" gradientTransform="matrix(52.045 0 0 -80.636 296.07 56867)" y1="705" x1="-4.314">
				<stop stop-color="#1DA7E7" offset="0"/>
				<stop stop-color="#37ABE7" stop-opacity="0" offset="1"/>
			</linearGradient>
			<path d="m69.7 31.4c0.7-2.2 1.5-4.8 2.5-7.9 0.9-2.9 2.5-5 5.5-5.9 0.1-0.2 0.2-0.3 0.2-0.5-4.8 0.3-7.1 2.8-8.3 6.4-2 6.4-3.2 10.5-4.4 13.1 1.5-1.4 3-3.1 4.5-5.2" fill="url(#SVGID_18_)"/>
			<path d="m76.8 39.3h-0.5v1.7h-0.3v-1.7h-0.6v-0.2h1.3v0.2h0.1z"/>
			<path d="m79.1 41h-0.2v-1.3-0.4c0 0.1 0 0.1-0.1 0.2l-0.6 1.5h-0.2l-0.7-1.5s0-0.1-0.1-0.2v0.4 1.3h-0.2v-1.9h0.3l0.6 1.3c0 0.1 0.1 0.2 0.1 0.2 0-0.1 0.1-0.2 0.1-0.2l0.6-1.3h0.3l0.1 1.9z"/>
		</g>
	<path d="m192 44.2l-7.2-7.2-7.2 7.2 2.6 2.6 2.4-2.4v14.1c0 0.9 0.1 3.4-4.3 3.4s-4.6-2.3-4.6-3.8v-0.4h-5.5v0.4c0 2.3-0.3 7.7 10.1 7.7 9.2 0 8.9-5 8.9-6.7v-14.7l2.3 2.4 2.5-2.6z" fill="#177BBF"/>
		<polygon points="159.7 57.2 159.7 57.6 156.6 50 156.6 49.6" fill="#024774"/>
		<polygon points="156.6 49.6 156.6 50 153.4 57.6 153.4 57.2" fill="#044A78"/>
		<rect y="60.6" x="152" height=".4" width="9.1" fill="#024774"/>
		<linearGradient id="SVGID_19_" y2="45.118" gradientUnits="userSpaceOnUse" x2="156.58" y1="64.55" x1="156.58">
			<stop stop-color="#3C94D0" offset="0"/>
			<stop stop-color="#0683C2" offset=".1"/>
			<stop stop-color="#0A74BA" offset=".4"/>
			<stop stop-color="#0A74BA" offset=".6"/>
			<stop stop-color="#0683C2" offset=".9"/>
			<stop stop-color="#3C94D0" offset="1"/>
		</linearGradient>
		<path d="m159.5 45.1l8.7 19.4h-5.6l-1.6-4h-9l-1.7 4h-5.4l8.8-19.4h5.8zm-6.1 12.1h6.3l-3.1-7.6-3.2 7.6" fill="url(#SVGID_19_)"/>
		<path d="m159.5 45.1l8.7 19.4h-5.6l-1.6-4h-9.1l-1.7 4h-5.4l8.8-19.4h5.9zm-6.1 12.1h6.3l-3.1-7.6-3.2 7.6" fill="#0A74BA"/>
		<rect y="64.5" x="144.9" height=".4" width="5.4" fill="#024774"/>
		<polygon points="152 60.6 152 61 150.3 65 150.3 64.5" fill="#044A78"/>
		<rect y="64.5" x="162.7" height=".4" width="5.6" fill="#024774"/>
		<polygon points="162.7 64.5 162.7 65 161.1 61 161.1 60.6" fill="#024774"/>
			<polygon points="159.7 56.9 159.7 57.4 156.6 49.7 156.6 49.3" fill="#fff"/>
			<polygon points="156.6 49.3 156.6 49.7 153.4 57.4 153.4 56.9" fill="#fff"/>
			<rect y="60.3" x="152" height=".4" width="9.1" fill="#fff"/>
			<rect y="64.3" x="144.9" height=".4" width="5.4" fill="#fff"/>
			<polygon points="152 60.3 152 60.7 150.3 64.7 150.3 64.3" fill="#fff"/>
			<rect y="64.3" x="162.7" height=".4" width="5.6" fill="#fff"/>
			<polygon points="162.7 64.3 162.7 64.7 161.1 60.7 161.1 60.3" fill="#fff"/>
		<linearGradient id="SVGID_20_" y2="45.118" gradientUnits="userSpaceOnUse" x2="199.06" y1="64.55" x1="199.06">
			<stop stop-color="#3C94D0" offset="0"/>
			<stop stop-color="#0683C2" offset=".1"/>
			<stop stop-color="#0A74BA" offset=".4"/>
			<stop stop-color="#0A74BA" offset=".6"/>
			<stop stop-color="#0683C2" offset=".9"/>
			<stop stop-color="#3C94D0" offset="1"/>
		</linearGradient>
		<path d="m202 45.1l8.7 19.4h-5.6l-1.6-4h-9.1l-1.7 4h-5.4l8.8-19.4h5.9zm-6.2 12.1h6.3l-3.1-7.6-3.2 7.6" fill="url(#SVGID_20_)"/>
			<polygon points="202.2 57.2 202.2 57.6 199 50 199 49.6" fill="#024774"/>
			<polygon points="199 49.6 199 50 195.8 57.6 195.8 57.2" fill="#044A78"/>
			<rect y="60.6" x="194.4" height=".4" width="9.1" fill="#024774"/>
			<rect y="64.5" x="187.3" height=".4" width="5.4" fill="#024774"/>
			<polygon points="194.4 60.6 194.4 61 192.7 65 192.7 64.5" fill="#044A78"/>
			<rect y="64.5" x="205.2" height=".4" width="5.6" fill="#024774"/>
			<polygon points="205.2 64.5 205.2 65 203.5 61 203.5 60.6" fill="#024774"/>
			<polygon points="202.2 56.9 202.2 57.4 199 49.7 199 49.3" fill="#fff"/>
			<polygon points="199 49.3 199 49.7 195.8 57.4 195.8 56.9" fill="#fff"/>
			<rect y="60.3" x="194.4" height=".4" width="9.1" fill="#fff"/>
			<rect y="64.3" x="187.3" height=".4" width="5.4" fill="#fff"/>
			<polygon points="194.4 60.3 194.4 60.7 192.7 64.7 192.7 64.3" fill="#fff"/>
			<rect y="64.3" x="205.2" height=".4" width="5.6" fill="#fff"/>
			<polygon points="205.2 64.3 205.2 64.7 203.5 60.7 203.5 60.3" fill="#fff"/>
		<linearGradient id="SVGID_21_" y2="45.118" gradientUnits="userSpaceOnUse" x2="222.96" y1="64.55" x1="222.96">
			<stop stop-color="#3C94D0" offset="0"/>
			<stop stop-color="#0683C2" offset=".1"/>
			<stop stop-color="#0A74BA" offset=".4"/>
			<stop stop-color="#0A74BA" offset=".6"/>
			<stop stop-color="#0683C2" offset=".9"/>
			<stop stop-color="#3C94D0" offset="1"/>
		</linearGradient>
		<polygon points="225.9 54.5 233.9 64.5 227.7 64.5 223 57.9 218 64.5 212 64.5 219.9 54.7 212.4 45.1 218.5 45.1 223 51.4 227.5 45.1 233.5 45.1" fill="url(#SVGID_21_)"/>
			<polygon points="233.5 45.1 233.5 45.5 225.9 54.9 225.9 54.5" fill="#034775"/>
			<polygon points="219.9 54.7 219.9 55.1 212.4 45.5 212.4 45.1" fill="#024774"/>
			<polygon points="227.7 64.5 227.7 65 223 58.4 223 57.9" fill="#024774"/>
			<rect y="64.5" x="212" height=".4" width="6" fill="#024774"/>
			<polygon points="223 57.9 223 58.4 218 65 218 64.5" fill="#034876"/>
			<rect y="64.5" x="227.7" height=".4" width="6.3" fill="#024774"/>
			<polygon points="233.5 44.8 233.5 45.3 225.9 54.6 225.9 54.2" fill="#fff"/>
			<polygon points="219.9 54.4 219.9 54.8 212.4 45.3 212.4 44.8" fill="#fff"/>
			<polygon points="227.7 64.3 227.7 64.7 223 58.1 223 57.7" fill="#fff"/>
			<rect y="64.3" x="212" height=".4" width="6" fill="#fff"/>
			<polygon points="223 57.7 223 58.1 218 64.7 218 64.3" fill="#fff"/>
			<rect y="64.3" x="227.7" height=".4" width="6.3" fill="#fff"/>
	<g enable-background="new    ">
		<defs>
			<path id="SVGID_22_" enable-background="new    " d="m182.5 58.3v0.4-0.1-0.3z"/>
		</defs>
		<clipPath id="SVGID_23_">
			<use overflow="visible" xlink:href="#SVGID_22_"/>
		</clipPath>
		<g enable-background="new    " clip-path="url(#SVGID_23_)">
			<path d="m182.5 58.3v0.4-0.1-0.3" fill="#044977"/>
		</g>
	</g>
			<polygon points="182.5 44.2 182.5 44.7 180.1 47 180.1 46.6" fill="#024774"/>
			<polygon points="180.1 46.6 180.1 47 177.6 44.5 177.6 44" fill="#024774"/>
			<polygon points="189.4 46.6 189.4 47 187.1 44.7 187.1 44.2" fill="#024774"/>
			<polygon points="192 44 192 44.5 189.4 47 189.4 46.6" fill="#024774"/>
		<g enable-background="new    ">
			<defs>
				<path id="SVGID_24_" enable-background="new    " d="m187.1 59.2v0.4c0 1.9-0.2 6.4-8.9 6.4-9.8 0-10.1-4.8-10.1-7.3v-0.4c0 2.5 0.3 7.3 10.1 7.3 8.6 0 8.9-4.5 8.9-6.4z"/>
			</defs>
			<clipPath id="SVGID_25_">
				<use overflow="visible" xlink:href="#SVGID_24_"/>
			</clipPath>
			<g enable-background="new    " clip-path="url(#SVGID_25_)">
				<path d="m187.1 59.2v0.4c0 0.3 0 0.8-0.1 1.2v-0.4c0.1-0.4 0.1-0.8 0.1-1.2" fill="#085080"/>
				<path d="m187 60.5v0.4c0 0.3-0.1 0.6-0.2 0.9v-0.4c0.1-0.3 0.2-0.6 0.2-0.9" fill="#074D7D"/>
				<path d="m186.8 61.4v0.4c-0.1 0.3-0.2 0.6-0.4 0.9v-0.4c0.2-0.3 0.3-0.6 0.4-0.9" fill="#054B7A"/>
				<path d="m186.4 62.3v0.4c-0.9 1.7-3.1 3.3-8.3 3.3-9.8 0-10.1-4.8-10.1-7.3v-0.4c0 2.5 0.3 7.3 10.1 7.3 5.3 0 7.4-1.6 8.3-3.3" fill="#044977"/>
			</g>
		</g>
		<linearGradient id="SVGID_26_" y2="36.812" gradientUnits="userSpaceOnUse" x2="180.02" y1="65.574" x1="180.02">
			<stop stop-color="#3C94D0" offset="0"/>
			<stop stop-color="#0683C2" offset=".1"/>
			<stop stop-color="#0A74BA" offset=".4"/>
			<stop stop-color="#0A74BA" offset=".6"/>
			<stop stop-color="#0683C2" offset=".75"/>
			<stop stop-color="#3C94D0" offset=".9"/>
		</linearGradient>
		<path d="m184.8 36.8l7.2 7.2-2.6 2.6-2.3-2.4v14.7c0 1.6 0.3 6.7-8.9 6.7-10.4 0-10.1-5.4-10.1-7.7v-0.4h5.5v0.4c0 1.5 0.2 3.8 4.6 3.8 4.3 0 4.3-2.5 4.3-3.4v-14.1l-2.4 2.4-2.6-2.6 7.3-7.2z" fill="url(#SVGID_26_)"/>
	<g enable-background="new    ">
		<defs>
			<path id="SVGID_27_" enable-background="new    " d="m168.4 33.8v-0.4 0.3 0.4-0.3z"/>
		</defs>
		<clipPath id="SVGID_28_">
			<use overflow="visible" xlink:href="#SVGID_27_"/>
		</clipPath>
		<g enable-background="new    " clip-path="url(#SVGID_28_)">
			<path d="m168.4 33.7v0.4-0.3-0.4 0.3" fill="#044977"/>
		</g>
	</g>
	<g enable-background="new    ">
		<defs>
			<path id="SVGID_29_" enable-background="new    " d="m187.5 34.3v0.4 0.4-0.4-0.4z"/>
		</defs>
		<clipPath id="SVGID_30_">
			<use overflow="visible" xlink:href="#SVGID_29_"/>
		</clipPath>
		<g enable-background="new    " clip-path="url(#SVGID_30_)">
			<path d="m187.5 34.3v0.4 0.4-0.4-0.4" fill="#085080"/>
		</g>
	</g>
		<linearGradient id="SVGID_31_" y2="27" gradientUnits="userSpaceOnUse" x2="175.5" y1="55.767" x1="175.5">
			<stop stop-color="#0683C2" offset=".1"/>
			<stop stop-color="#0A74BA" offset=".4"/>
			<stop stop-color="#3C94D0" offset=".65"/>
			<stop stop-color="#6BB2E1" offset="1"/>
		</linearGradient>
		<path d="m177.3 27c10.4 0 10.1 5.4 10.1 7.7v0.4h-5.4v-0.4c0-1.5-0.2-3.8-4.6-3.8-4.3 0-4.3 2.5-4.3 3.4v14.1l2.4-2.4 2.6 2.6-7.2 7.2-7.2-7.2 2.6-2.6 2.3 2.4v-14.7c-0.2-1.7-0.4-6.7 8.7-6.7z" fill="url(#SVGID_31_)"/>
		<path d="m202 45.1l8.7 19.4h-5.6l-1.6-4h-9.1l-1.7 4h-5.4l8.8-19.4h5.9zm-6.2 12.1h6.3l-3.1-7.6-3.2 7.6" fill="#0A74BA"/>
		<polygon points="225.9 54.5 233.9 64.5 227.7 64.5 223 57.9 218 64.5 212 64.5 219.9 54.7 212.4 45.1 218.5 45.1 223 51.4 227.5 45.1 233.5 45.1" fill="#0A74BA"/>
		<path d="m184.8 36.8l7.2 7.2-2.6 2.6-2.3-2.4v14.7c0 1.6 0.3 6.7-8.9 6.7-10.4 0-10.1-5.4-10.1-7.7v-0.4h5.5v0.4c0 1.5 0.2 3.8 4.6 3.8 4.3 0 4.3-2.5 4.3-3.4v-14.1l-2.4 2.4-2.6-2.6 7.3-7.2z" fill="#0A74BA"/>
		<path d="m177.3 27c10.4 0 10.1 5.4 10.1 7.7v0.4h-5.4v-0.4c0-1.5-0.2-3.8-4.6-3.8-4.3 0-4.3 2.5-4.3 3.4v14.1l2.4-2.4 2.6 2.6-7.2 7.2-7.2-7.2 2.6-2.6 2.3 2.4v-14.7c-0.2-1.7-0.4-6.7 8.7-6.7z" fill="#0A74BA"/>
		<g enable-background="new    ">
			<defs>
				<path id="SVGID_32_" enable-background="new    " d="m173.1 34.6v-0.4c0-1 0.1-3.3 4.3-3.3 4.4 0 4.6 2.3 4.6 3.8v0.4c0-1.5-0.2-3.8-4.6-3.8-4.3 0-4.3 2.4-4.3 3.3z"/>
			</defs>
			<clipPath id="SVGID_33_">
				<use overflow="visible" xlink:href="#SVGID_32_"/>
			</clipPath>
			<g enable-background="new    " clip-path="url(#SVGID_33_)">
				<path d="m182 34.7v0.4c0-1.5-0.2-3.8-4.6-3.8-2.4 0-3.5 0.8-3.9 1.6v-0.4c0.5-0.8 1.5-1.6 3.9-1.6 4.4 0 4.5 2.3 4.6 3.8" fill="#044977"/>
				<path d="m173.4 32.5v0.5c-0.1 0.2-0.1 0.3-0.2 0.5v-0.5c0.1-0.2 0.1-0.3 0.2-0.5" fill="#054B7A"/>
				<path d="m173.2 33v0.4c-0.1 0.2-0.1 0.3-0.1 0.5v-0.4c0-0.2 0.1-0.3 0.1-0.5" fill="#074D7D"/>
				<path d="m173.1 33.5v0.4 0.7-0.4-0.7" fill="#085080"/>
			</g>
		</g>
			<rect y="35.2" x="182" height=".4" width="5.5" fill="#024774"/>
			<polygon points="178 48.5 178 49 170.8 56.2 170.8 55.8" fill="#024774"/>
			<polygon points="170.8 55.8 170.8 56.2 163.5 49 163.5 48.5" fill="#024774"/>
		<g enable-background="new    ">
			<defs>
				<path id="SVGID_34_" enable-background="new    " d="m173.1 34.4v-0.4c0-1 0.1-3.3 4.3-3.3 4.4 0 4.6 2.3 4.6 3.8v0.4c0-1.5-0.2-3.8-4.6-3.8-4.3 0-4.3 2.3-4.3 3.3z"/>
			</defs>
			<use overflow="visible" xlink:href="#SVGID_34_" fill="#FFFFFF"/>
			<clipPath id="SVGID_35_">
				<use overflow="visible" xlink:href="#SVGID_34_"/>
			</clipPath>
			<g enable-background="new    " fill="#fff" clip-path="url(#SVGID_35_)">
				<path d="m182 34.5v0.4c0-1.5-0.2-3.8-4.6-3.8-2.4 0-3.5 0.8-3.9 1.6v-0.4c0.5-0.8 1.5-1.6 3.9-1.6 4.4-0.1 4.5 2.2 4.6 3.8"/>
				<path d="m173.4 32.3v0.4c-0.1 0.2-0.1 0.3-0.2 0.5v-0.4c0.1-0.2 0.1-0.4 0.2-0.5"/>
				<path d="m173.2 32.7v0.4c-0.1 0.2-0.1 0.3-0.1 0.5v-0.4c0-0.1 0.1-0.3 0.1-0.5"/>
				<path d="m173.1 33.2v0.4 0.7-0.4-0.7"/>
			</g>
		</g>
			<rect y="34.9" x="182" height=".4" width="5.5" fill="#fff"/>
			<polygon points="178 48.3 178 48.7 170.8 55.9 170.8 55.5" fill="#fff"/>
			<polygon points="170.8 55.5 170.8 55.9 163.5 48.7 163.5 48.3" fill="#fff"/>
			<polygon points="182.5 44 182.5 44.4 180.1 46.7 180.1 46.3" fill="#fff"/>
			<polygon points="180.1 46.3 180.1 46.7 177.6 44.2 177.6 43.8" fill="#fff"/>
			<polygon points="189.4 46.3 189.4 46.7 187.1 44.4 187.1 44" fill="#fff"/>
			<polygon points="192 43.8 192 44.2 189.4 46.7 189.4 46.3" fill="#fff"/>
		<g enable-background="new    ">
			<defs>
				<path id="SVGID_36_" enable-background="new    " d="m187.1 58.9v0.4c0 1.9-0.2 6.4-8.9 6.4-9.8 0-10.1-4.8-10.1-7.3v-0.4c0 2.5 0.3 7.3 10.1 7.3 8.6 0 8.9-4.5 8.9-6.4z"/>
			</defs>
			<use overflow="visible" xlink:href="#SVGID_36_" fill="#FFFFFF"/>
			<clipPath id="SVGID_37_">
				<use overflow="visible" xlink:href="#SVGID_36_"/>
			</clipPath>
			<g enable-background="new    " fill="#fff" clip-path="url(#SVGID_37_)">
				<path d="m187.1 58.9v0.4c0 0.3 0 0.8-0.1 1.2v-0.4c0.1-0.4 0.1-0.8 0.1-1.2"/>
				<path d="m187 60.2v0.4c0 0.3-0.1 0.6-0.2 0.9v-0.4c0.1-0.3 0.2-0.6 0.2-0.9"/>
				<path d="m186.8 61.1v0.4c-0.1 0.3-0.2 0.6-0.4 0.9v-0.4c0.2-0.3 0.3-0.6 0.4-0.9"/>
				<path d="m186.4 62v0.4c-0.9 1.7-3.1 3.3-8.3 3.3-9.8 0-10.1-4.8-10.1-7.3v-0.4c0 2.5 0.3 7.3 10.1 7.3 5.3 0 7.4-1.6 8.3-3.3"/>
			</g>
		</g>
		<path d="m290.7 26.7l27.6-9.8 28.3 9.6-4.6 36.5-23.7 13.1-23.3-13-4.3-36.4z" fill="#E23237"/>
		<path d="m346.6 26.5l-28.3-9.6v59.2l23.7-13.1 4.6-36.5z" fill="#B52E31"/>
		<path d="m318.3 23.8l-17.2 38.2 6.4-0.1 3.4-8.6h15.3l3.8 8.7 6.1 0.1-17.8-38.3zm0.1 12.2l5.8 12.1h-11l5.2-12.1z" fill="#fff"/>
		<path d="m403.3 65.9c0 3.7 3 6.7 6.7 6.7h38.8c3.7 0 6.7-3 6.7-6.7v-38.8c0-3.7-3-6.7-6.7-6.7h-38.8c-3.7 0-6.7 3-6.7 6.7v38.8z" fill="#563D7C"/>
		<path d="m425 43.5v-7.4h6.5c0.6 0 1.2 0.1 1.8 0.2s1.1 0.3 1.5 0.6 0.8 0.6 1.1 1.1 0.4 1.1 0.4 1.8c0 1.3-0.4 2.3-1.2 2.9s-1.8 0.9-3.1 0.9h-7v-0.1zm-6.9-12.8v31.7h15.3c1.4 0 2.8-0.2 4.1-0.5 1.3-0.4 2.5-0.9 3.6-1.6s1.9-1.7 2.5-2.9c0.6-1.2 0.9-2.6 0.9-4.1 0-2-0.5-3.7-1.4-5.1-1-1.4-2.4-2.4-4.4-3 1.4-0.7 2.5-1.6 3.2-2.6 0.7-1.1 1.1-2.4 1.1-4 0-1.5-0.2-2.7-0.7-3.7s-1.2-1.8-2.1-2.4-2-1-3.2-1.3c-1.2-0.3-2.6-0.4-4.1-0.4h-14.8v-0.1zm6.9 26.2v-8.7h7.6c1.5 0 2.7 0.3 3.6 1s1.4 1.9 1.4 3.5c0 0.8-0.1 1.5-0.4 2s-0.7 1-1.1 1.3-1 0.5-1.6 0.7c-0.6 0.1-1.3 0.2-2 0.2h-7.5z" fill="#fff"/>
		<circle cy="46.5" cx="541" r="28.5" fill="#F5BB60"/>
		<path d="m538.1 18c14.2 0 25.6 11.5 25.6 25.6 0 14.2-11.5 25.6-25.6 25.6-14.2 0-25.6-11.5-25.6-25.6-0.1-14.1 11.4-25.6 25.6-25.6z" fill="#E86F32"/>
		<path d="m541.5 18c12.3 0 22.2 10 22.2 22.2 0 12.3-10 22.2-22.2 22.2-12.3 0-22.2-10-22.2-22.2-0.1-12.2 9.9-22.2 22.2-22.2z" fill="#E53D42"/>
		<circle cy="42" cx="543.3" r="20.4" fill="#BFD141"/>
		<circle cy="43.5" cx="541.8" r="19" fill="#6DB64C"/>
		<path d="m538.7 24.6c8.8 0 15.9 7.1 15.9 15.9s-7.1 15.9-15.9 15.9c-8.8 0-15.9-7.1-15.9-15.9s7.1-15.9 15.9-15.9z" fill="#AFDBE7"/>
		<path d="m541.3 24.5c7.4 0 13.3 6 13.3 13.3 0 7.4-6 13.3-13.3 13.3-7.4 0-13.3-6-13.3-13.3s6-13.3 13.3-13.3z" fill="#57BADF"/>
		<circle cy="39.6" cx="543" r="11.7" fill="#02B2D6"/>
			<radialGradient id="SVGID_38_" gradientUnits="userSpaceOnUse" cy="704.46" cx="4.4189" gradientTransform="matrix(89.537 0 0 -89.537 145.7 63116)" r=".1118">
			<stop stop-color="#797979" offset="0"/>
			<stop stop-color="#4C4C4C" offset="1"/>
		</radialGradient>
		<circle cy="41.2" cx="541.3" r="10" fill="url(#SVGID_38_)"/>
		<circle cy="41.2" cx="541.3" r="10" fill="#231F20"/>
		<path d="m543.9 39.9c1 0.4 2.4-0.5 3.1-2 0.7-1.6 0.5-3.2-0.5-3.6s-2.4 0.5-3.1 2-0.5 3.2 0.5 3.6z" fill="#fff"/>
		<path d="m678.7 34.4c0-1-0.2-1.9-0.6-2.6s-1.1-1.4-1.9-1.8c-7-4-14-8-20.9-12.1-1.9-1.1-3.7-1-5.6 0.1-2.8 1.6-16.7 9.6-20.8 12-1.7 1-2.5 2.5-2.5 4.5v24.3c0 1 0.2 1.8 0.6 2.6s1.1 1.4 1.9 1.9c4.1 2.4 18.1 10.4 20.8 12 1.9 1.1 3.7 1.1 5.6 0.1 7-4 14-8 20.9-12.1 0.9-0.5 1.5-1.1 1.9-1.9 0.4-0.7 0.6-1.6 0.6-2.6v-24.4" fill="#5C8DBC"/>
		<path d="m652.5 46.4l-25.7 14.8c0.4 0.8 1.1 1.4 1.9 1.9 4.1 2.4 18.1 10.4 20.8 12 1.9 1.1 3.7 1.1 5.6 0.1 7-4 14-8 20.9-12.1 0.9-0.5 1.5-1.1 1.9-1.9l-25.4-14.8" fill="#1A4674"/>
		<path d="m644.9 50.8c1.5 2.6 4.3 4.4 7.5 4.4s6.1-1.8 7.6-4.4l-7.5-4.3-7.6 4.3" fill="#1A4674"/>
		<path d="m678.7 34.4c0-1-0.2-1.9-0.6-2.6l-25.5 14.7 25.4 14.7c0.4-0.7 0.6-1.6 0.6-2.6 0.1 0 0.1-16.1 0.1-24.2" fill="#1B598E"/>
		<path d="m677.3 47.5h-2v2h-2v-2h-2v-2h2v-2h2v2h2v2" fill="#fff"/>
		<path d="m670 47.5h-2v2h-2v-2h-2v-2h2v-2h2v2h2v2" fill="#fff"/>
		<path d="m660 50.8c-1.5 2.6-4.3 4.4-7.6 4.4-3.2 0-6-1.8-7.5-4.4-0.7-1.3-1.1-2.7-1.1-4.3 0-4.8 3.9-8.7 8.7-8.7 3.2 0 6 1.7 7.5 4.3l7.6-4.4c-3-5.2-8.6-8.7-15.1-8.7-9.6 0-17.4 7.8-17.4 17.4 0 3.2 0.8 6.1 2.3 8.7 3 5.2 8.6 8.7 15.1 8.7s12.1-3.5 15.1-8.8l-7.6-4.2" fill="#fff"/>
		<path d="m738.1 74.3c-1.1 0-1.4-0.6-1.4-1.6 0-0.3 0-0.7 0.1-1 0.2-1.6 0.8-2.5 2.2-2.5 0.9 0 1.4 0.4 1.4 1.2v0.4h0.9v-0.4c0-1.1-0.7-2.2-2.3-2.2-2.2 0-3.2 1.2-3.5 3.6 0 0.3-0.1 0.6-0.1 0.9 0 1.4 0.6 2.7 2.5 2.7 1.5 0 2.4-0.7 2.9-1.6l-0.9-0.6c-0.5 0.9-1.1 1.1-1.8 1.1zm6.1-4.4c-1.8 0-2.6 0.9-2.8 2.8v0.6c0 1.2 0.6 2.1 2.1 2.1 1.8 0 2.6-1 2.8-2.8v-0.7c0-1.1-0.6-2-2.1-2zm0.7 2.7c-0.2 1.3-0.6 1.7-1.4 1.7-0.6 0-0.9-0.3-0.9-1 0-0.2 0-0.4 0.1-0.7 0.2-1.3 0.6-1.7 1.4-1.7 0.6 0 1 0.3 1 1.1-0.1 0.2-0.1 0.4-0.2 0.6zm5.9-4.3l-0.3 1.8v0.2c-0.3-0.2-0.8-0.4-1.1-0.4-1.6 0-2.5 0.7-2.8 2.8v0.7c0 1.5 0.9 2 2 2 0.5 0 1 0 1.4-0.3l0.1 0.6h0.9l1.1-7.4h-1.3zm-0.9 5.8c-0.4 0.3-0.9 0.3-1.1 0.3-0.7 0-0.9-0.4-0.9-1 0-0.2 0-0.5 0.1-0.8 0.2-1.5 0.7-1.8 1.4-1.8 0.4 0 0.7 0.1 1 0.2l-0.5 3.1zm5-4.2c-1.8 0-2.6 0.8-2.9 2.8v0.7c0 1.3 0.7 2.1 2.1 2.1 1.1 0 2-0.5 2.5-1.3l-1-0.4c-0.3 0.4-0.7 0.7-1.3 0.7-0.7 0-1-0.2-1-0.8v-0.3h3.5c0-0.5 0.1-0.8 0.1-1.1 0-1.2-0.4-2.4-2-2.4zm0.7 2.4h-2.1c0.2-0.5 0.6-1.3 1.3-1.3 0.6 0 0.9 0.3 0.9 0.9-0.1 0.1-0.1 0.4-0.1 0.4zm5-2.5l0.1-1h-2.7l-0.1 1h0.7l-0.8 5h-0.7l-0.1 1h2.7l0.1-1h-0.7l0.8-5h0.7zm5.6 1.5l0.3-1h-0.9l-0.7 0.1c-0.4-0.2-0.9-0.4-1.4-0.4-1.4 0-2.6 0.7-2.6 2.2 0 0.4 0.2 0.8 0.3 1-0.3 0.2-0.5 0.4-0.5 0.8 0 0.2 0.1 0.3 0.2 0.5-0.6 0.4-0.9 0.9-0.9 1.6 0 1.3 1.4 1.6 2.4 1.6 1.3 0 2.9-0.3 2.9-2 0-0.6-0.4-1-1.4-1.2l-1.9-0.4c-0.2 0-0.3-0.1-0.3-0.2s0.1-0.2 0.2-0.2h0.1c0.3 0.1 0.5 0.1 0.8 0.1 1.4 0 2.6-0.6 2.6-2.1 0-0.2 0-0.4-0.1-0.6 0.2 0.1 0.4 0.2 0.5 0.2h0.4zm-2.7 4c0.4 0.1 0.5 0.2 0.5 0.4 0 0.8-0.8 0.9-1.5 0.9-0.9 0-1.3-0.2-1.3-0.7 0-0.4 0.1-0.6 0.4-1l1.9 0.4zm-0.4-2.6c-0.6 0-0.9-0.2-0.9-0.7 0-0.7 0.4-1.1 1.1-1.1 0.6 0 0.9 0.2 0.9 0.7 0.1 0.7-0.3 1.1-1.1 1.1zm6.6-2.8c-0.5 0-1 0.3-1.6 0.7l-0.1-0.4h-1.1l-0.7 5.4h1.3l0.6-4.1c0.4-0.2 0.8-0.6 1.2-0.6 0.5 0 0.7 0.2 0.7 0.7v0.5l-0.5 3.5h1.3l0.5-3.5v-0.6c-0.1-0.8-0.6-1.6-1.6-1.6zm3.9 4.5v-0.1l0.6-3.9h-2.1l-0.1 1h0.9c-0.1 0-0.1 0.1-0.1 0.2l-0.4 2.6v0.5c0 0.7 0.4 1.2 1.1 1.2h0.7l0.1-1h-0.4c-0.2-0.2-0.3-0.4-0.3-0.5zm0.9-6.1h-1.3c-0.1 0-0.1-0.3-0.1-0.2l-0.2 1.4c0 0.1 0 0.3 0.1 0.3h1.3c0.1 0 0.1-0.3 0.1-0.4l0.1-1.1v0zm2.6 6.1c-0.3 0-0.5-0.1-0.5-0.4l0.4-2.7h1.5l0.4-1h-1.8l0.3-2.2-1.4 0.4-0.2 1.7h-0.8l-0.1 1h0.9c-0.1 0.5-0.2 0.2-0.2 0.3l-0.3 2.3v0.3c0 0.9 0.7 1.3 1.5 1.3s1.4-0.2 1.8-0.6l-0.6-0.7c-0.2 0.2-0.5 0.3-0.9 0.3zm4.7-4.5c-1.8 0-2.6 0.8-2.9 2.8v0.7c0 1.3 0.7 2.1 2.1 2.1 1.1 0 2-0.5 2.5-1.3l-1-0.4c-0.3 0.4-0.7 0.7-1.3 0.7-0.7 0-1-0.2-1-0.8v-0.3h3.5c0-0.5 0.1-0.8 0.1-1.1 0-1.2-0.3-2.4-2-2.4zm0.7 2.4h-2.1c0.2-0.5 0.6-1.3 1.3-1.3 0.6 0 0.9 0.3 0.9 0.9-0.1 0.1-0.1 0.4-0.1 0.4zm4.9-2.4c-0.5 0-0.9 0.3-1.3 0.7l-0.1-0.3h-1.1l-0.7 5.4h1.3l0.6-4.2c0.3-0.2 0.7-0.4 1.1-0.4h0.7l0.1-1.1c-0.2-0.1-0.4-0.1-0.6-0.1zm-33-5.5c-2.9-1.3-5.7-4.5-5.7-7.8 0-3.6 2.3-6.7 5.1-8.7-0.3 1.3-0.5 2.5 0.3 3.6s2.2 1.6 3.5 1.3c3-0.7 3.2-4 1.4-5.9s-3.5-4.1-2.8-6.9c0.3-1.4 1.2-2.7 2.3-3.6-0.8 2.2 1.5 4.4 3.1 5.4 2.7 1.9 5.7 3.3 8.2 5.5 2.6 2.3 4.6 5.4 4.2 9.1-0.4 3.9-3.5 6.7-7 8 7.4-1.6 15-7.4 15.2-15.6 0.1-6.7-4.5-11.9-10.2-14.9l-0.3-0.2c0.2 0.4 0.2 0.7 0.2 1 0.1-0.2 0.1-0.4 0.1-0.7 0 0.3 0 0.5-0.1 0.8v-0.1c-0.1 0.4-0.2 0.7-0.4 1l0.1-0.1c-1.1 1.9-4.2 2.3-5.8 0.3-2.5-3.2 0.1-6.6 0.4-9.9 0.4-4.2-2.2-8.3-5.5-10.7 1.8 2.9-0.6 6.7-2.5 8.9-1.8 2.1-4.1 3.8-6.1 5.7-2.2 2-4.3 4.2-6.1 6.6-3.6 4.8-5.8 10.8-4.2 16.7 1.6 6.1 6.8 9.8 12.6 11.2z" fill="#EE4323"/>
		<path d="m870.6 83l-21.1-5.9-4.7-52.8h51.7l-4.7 52.8-21.2 5.9z" fill="#264DE4"/>
		<path d="m887.7 73.8l4-45.1h-21.1v49.8l17.1-4.7z" fill="#2965F1"/>
		<path d="m855.5 48.2l0.6 6.5h14.5v-6.5h-15.1z" fill="#EBEBEB"/>
		<path d="m854.4 35.1l0.6 6.5h15.6v-6.5h-16.2z" fill="#EBEBEB"/>
		<path d="m870.6 65.1l-7.2-1.9-0.5-5.2h-6.5l0.9 10.2 13.3 3.7v-6.8z" fill="#EBEBEB"/>
		<path d="m856.9 10h7.8v3.3h-4.6v3.3h4.6v3.3h-7.8v-9.9z"/>
		<path d="m866.3 10h7.8v2.9h-4.6v0.6h4.6v6.5h-7.8v-3h4.6v-0.6h-4.6v-6.4z"/>
		<path d="m875.7 10h7.8v2.9h-4.5v0.6h4.6v6.5h-7.8v-3h4.6v-0.6h-4.6v-6.4h-0.1z"/>
		<path d="m885.6 48.2l1.2-13.1h-16.2v6.5h9.1l-0.6 6.6h-8.5v6.5h8l-0.8 8.4-7.2 1.9v6.7l13.3-3.7 0.1-1 1.5-17 0.1-1.8z" fill="#fff"/>
			<linearGradient id="SVGID_39_" y2="704.08" gradientUnits="userSpaceOnUse" x2="-1.9516" gradientTransform="matrix(82.491 0 0 -81.43 240.04 57513)" y1="704.45" x1="-2.2944">
			<stop stop-color="#F9A03C" offset="0"/>
			<stop stop-color="#F7974E" offset="1"/>
		</linearGradient>
		<path d="m78.3 178.4v-0.6c0-0.3-14.8-14.3-14.8-14.3h-0.4c0.1 0 15.1 15.9 15.2 14.9z" fill="url(#SVGID_39_)"/>
			<linearGradient id="SVGID_40_" y2="714.27" gradientUnits="userSpaceOnUse" x2="-3.1821" gradientTransform="matrix(40.21 0 0 -40.412 181.7 29046)" y1="714.91" x1="-3.8379">
			<stop stop-color="#F9A03C" offset="0"/>
			<stop stop-color="#F7974E" offset="1"/>
		</linearGradient>
		<path d="m46.7 173.6s0 0.1-0.1 0.1c0 0 0 0.1-0.1 0.1-0.5 1 6.6 7.9 7.2 7.1l0.1-0.1 0.1-0.1c0.5-0.7-7-7.6-7.2-7.1z" fill="url(#SVGID_40_)"/>
			<linearGradient id="SVGID_41_" y2="715.6" gradientUnits="userSpaceOnUse" x2="-4.1823" gradientTransform="matrix(41.04 0 0 -39.933 235.09 28767)" y1="716.27" x1="-4.7656">
			<stop stop-color="#F9A03C" offset="0"/>
			<stop stop-color="#F7974E" offset="1"/>
		</linearGradient>
		<path d="m56.7 183.3s-0.2 0.3-0.3 0.4l6.9 6.9h0.7s-6.6-7-7.3-7.3z" fill="url(#SVGID_41_)"/>
			<linearGradient id="SVGID_42_" y2="697.86" gradientUnits="userSpaceOnUse" x2=".5322" gradientTransform="matrix(255.83 0 0 -242.02 -65.5 1.6908e5)" y1="698.03" x1=".4014">
			<stop stop-color="#F26D58" offset="0"/>
			<stop stop-color="#F9A03C" offset="1"/>
		</linearGradient>
		<path d="m78.4 177.7c-0.3 7.2-6.3 13-13.6 13h-1l-7.3-7.2c0.6-0.8 1.2-1.7 1.6-2.6h6.6c2.1 0 3.8-1.7 3.8-3.8s-1.7-3.8-3.8-3.8h-3.9c0.3-1.6 0.5-3.2 0.5-4.9s-0.2-3.3-0.5-4.9h2.4l15 14.8c0.2-0.2 0.2-0.4 0.2-0.6zm-43.1-31.6h-3.9v9.8h3.9c6.9 0 12.5 5.6 12.5 12.5 0 1.9-0.4 3.7-1.2 5.3l7.2 7.1c2.4-3.5 3.7-7.8 3.7-12.4 0.1-12.3-9.9-22.3-22.2-22.3z" fill="url(#SVGID_42_)"/>
			<linearGradient id="SVGID_43_" y2="698.93" gradientUnits="userSpaceOnUse" x2="-.1144" gradientTransform="matrix(160.73 0 0 -174.81 102.52 1.2235e5)" y1="699.05" x1="-.3062">
			<stop stop-color="#B84E51" offset="0"/>
			<stop stop-color="#F68E48" offset="1"/>
		</linearGradient>
		<path d="m64.8 146.1h-16c3.9 2.4 7.1 5.8 9.3 9.8h6.6c2.1 0 3.8 1.7 3.8 3.8s-1.7 3.8-3.8 3.8h-1.5l15 14.8c0-0.4 0.1-0.8 0.1-1.2 0-3.3-1.2-6.3-3.1-8.7 2-2.4 3.1-5.4 3.1-8.7 0.1-7.5-6-13.6-13.5-13.6z" fill="url(#SVGID_43_)"/>
			<linearGradient id="SVGID_44_" y2="703.42" gradientUnits="userSpaceOnUse" x2=".3039" gradientTransform="matrix(176.77 0 0 -92.629 -5.5088 65356)" y1="703.65" x1=".2949">
			<stop stop-color="#F9A03C" offset="0"/>
			<stop stop-color="#F7974E" offset="1"/>
		</linearGradient>
		<path d="m63.8 190.6h-14.8c3-1.8 5.6-4.3 7.6-7.2l7.2 7.2zm-10-9.8l-7.2-7.1c-2 4.3-6.3 7.3-11.3 7.3h-3.9v9.8h3.9c7.7-0.1 14.5-4 18.5-10z" fill="url(#SVGID_44_)"/>
	<g fill="#2BA977">
		<path d="m152 138.5h9.8v44.9c-5 0.9-8.7 1.3-12.7 1.3-12 0-18.2-5.4-18.2-15.6 0-9.9 6.6-16.3 16.9-16.3 1.6 0 2.8 0.1 4.3 0.5v-14.8zm0.4 22.9c-1.1-0.4-2.1-0.5-3.3-0.5-5 0-7.8 3-7.8 8.3 0 5.2 2.7 8 7.8 8 1.1 0 2-0.1 3.4-0.3v-15.5z"/>
		<path d="m177.9 154v22.5c0 7.7-0.6 11.5-2.3 14.7-1.6 3.1-3.7 5-8 7.2l-9.1-4.3c4.3-2 6.4-3.8 7.8-6.5 1.4-2.8 1.8-6 1.8-14.4v-19.2h9.8z"/>
		<path d="m167.1 138.5h9.8v10h-9.8v-10z"/>
	</g>
		<path d="m287.7 162.1c-2.1 0-3.7 1-3.7 3.5 0 1.9 1 3.2 3.5 3.2 2.1 0 3.6-1.3 3.6-3.2 0-2.4-1.3-3.5-3.4-3.5zm-4.2 17.4c-0.5 0.6-1 1.3-1 2 0 1.5 1.9 2 4.6 2 2.2 0 5.2-0.2 5.2-2.2 0-1.2-1.4-1.3-3.3-1.4l-5.5-0.4zm11.3-17.3c0.7 0.9 1.4 2.1 1.4 3.8 0 4.2-3.3 6.7-8.1 6.7-1.2 0-2.3-0.2-3-0.3l-1.3 2 3.7 0.2c6.6 0.4 10.5 0.6 10.5 5.7 0 4.4-3.8 6.9-10.5 6.9-6.9 0-9.5-1.8-9.5-4.8 0-1.7 0.8-2.6 2.1-3.9-1.3-0.5-1.7-1.5-1.7-2.5 0-0.8 0.4-1.6 1.1-2.3s1.4-1.4 2.4-2.3c-1.9-0.9-3.3-2.9-3.3-5.7 0-4.4 2.9-7.4 8.7-7.4 1.6 0 2.6 0.1 3.5 0.4h7.4v3.2l-3.4 0.3z" fill="#2F2707"/>
		<path d="m305 155.3c-2.2 0-3.4-1.3-3.4-3.4 0-2.2 1.3-3.4 3.4-3.4 2.2 0 3.5 1.2 3.5 3.4-0.1 2.1-1.3 3.4-3.5 3.4zm-4.9 22.8v-3l1.9-0.3c0.5-0.1 0.6-0.2 0.6-0.8v-11.2c0-0.4-0.1-0.7-0.5-0.8l-2.1-0.7 0.4-3.1h7.9v15.8c0 0.6 0 0.7 0.6 0.8l1.9 0.3v3h-10.7z" fill="#2F2707"/>
		<path d="m326 176.7c-1.6 0.8-4 1.5-6.2 1.5-4.5 0-6.2-1.8-6.2-6.1v-10c0-0.2 0-0.4-0.3-0.4h-2.7v-3.4c3.4-0.4 4.7-2.1 5.1-6.2h3.6v5.4c0 0.3 0 0.4 0.3 0.4h5.4v3.8h-5.7v9.1c0 2.2 0.5 3.1 2.6 3.1 1.1 0 2.2-0.3 3.1-0.6l1 3.4" fill="#2F2707"/>
		<path d="m269.5 166.7l-17.4-17.4c-1-1-2.6-1-3.6 0l-3.6 3.6 4.6 4.6c1.1-0.4 2.3-0.1 3.1 0.7 0.9 0.9 1.1 2.1 0.7 3.2l4.4 4.4c1.1-0.4 2.3-0.1 3.2 0.7 1.2 1.2 1.2 3.1 0 4.3s-3.1 1.2-4.3 0c-0.9-0.9-1.1-2.2-0.7-3.3l-4.1-4.1v10.9c0.3 0.1 0.6 0.3 0.8 0.6 1.2 1.2 1.2 3.1 0 4.3s-3.1 1.2-4.3 0-1.2-3.1 0-4.3c0.3-0.3 0.6-0.5 1-0.7v-11c-0.4-0.1-0.7-0.4-1-0.7-0.9-0.9-1.1-2.2-0.7-3.3l-4.5-4.5-11.9 11.9c-1 1-1 2.6 0 3.6l17.4 17.4c1 1 2.6 1 3.6 0l17.3-17.3c1-1 1-2.6 0-3.6" fill="#DE4C36"/>
		<path d="m437.7 189.1c0 4.1-9.5 7.4-21.2 7.4s-21.2-3.3-21.2-7.4 9.5-7.4 21.2-7.4 21.2 3.3 21.2 7.4z" fill="#9EDCF2"/>
				<defs>
					<path id="SVGID_45_" d="m407.4 202.4c0.5 2.2 1.6 3.5 2.8 4.3h12.1c1.5-1 3-2.9 3-6.4v-9.1s0.2-2.3 2.3-3c0 0 1.2-0.9-0.1-1.3 0 0-5.7-0.5-5.7 4.2v7s0.2 2.6-1.1 3.6v-8.7s0.1-2.7 1.5-3.8c0 0 0.9-1.7-1.1-1.2 0 0-4 0.6-4.1 5.2l-0.1 8.8h-0.9l-0.1-8.8c-0.2-4.6-4.1-5.2-4.1-5.2-2.1-0.5-1.1 1.2-1.1 1.2 1.4 1 1.5 3.8 1.5 3.8v8.7c-1.4-1-1.1-3.7-1.1-3.7v-7c0-4.7-5.7-4.2-5.7-4.2-1.3 0.5-0.1 1.3-0.1 1.3 2.1 0.8 2.3 3 2.3 3v6.4l-0.2 4.9z"/>
				</defs>
				<clipPath id="SVGID_46_">
					<use overflow="visible" xlink:href="#SVGID_45_"/>
				</clipPath>
				<path fill="#7DBCE7" d="m437.7 189.1c0 4.1-9.5 7.4-21.2 7.4s-21.2-3.3-21.2-7.4 9.5-7.4 21.2-7.4 21.2 3.3 21.2 7.4z" clip-path="url(#SVGID_46_)"/>
		<path d="m392.3 167.3l-0.6 2.1s-0.1 0.8 0.6 0.9c0.8 0 0.7-0.7 0.6-0.9l-0.6-2.1z" fill="#9EDCF2"/>
		<path d="m453.9 158.4l0.1-0.3c-6.2-1.2-12.6-1.3-16.4-1.1 0.6-2.3 0.8-4.9 0.8-7.8 0-4.2-1.6-7.6-4.1-10.1 0.4-1.4 1-4.7-0.6-8.8 0 0-2.9-0.9-9.5 3.5-2.6-0.6-5.3-1-8-1-3 0-6 0.4-8.9 1.1-6.8-4.6-9.8-3.7-9.8-3.7-1.9 4.9-0.7 8.5-0.4 9.4-2.3 2.5-3.7 5.6-3.7 9.5 0 2.9 0.3 5.5 1.1 7.8-3.9-0.1-10-0.1-16 1.1l0.1 0.3c6-1.2 12.2-1.2 16.1-1.1 0.2 0.5 0.4 0.9 0.6 1.4-3.8 0.1-10.3 0.6-16.6 2.4l0.1 0.3c6.3-1.8 12.9-2.2 16.7-2.4 2.3 4.2 6.8 7 14.8 7.9-1.1 0.8-2.3 2.1-2.8 4.3-1.6 0.7-6.5 2.6-9.4-2.5 0 0-1.7-3-4.8-3.2 0 0-3.1-0.1-0.2 1.9 0 0 2 1 3.4 4.6 0 0 1.9 6.2 10.7 4.2v6.3s-0.2 2.3-2.3 3c0 0-1.2 0.9 0.1 1.3 0 0 5.7 0.5 5.7-4.2v-7s-0.2-2.8 1.1-3.7v11.4s-0.1 2.7-1.5 3.8c0 0-0.9 1.7 1.1 1.2 0 0 4-0.6 4.1-5.2l0.1-11.6h0.9l0.1 11.6c0.2 4.6 4.1 5.2 4.1 5.2 2.1 0.5 1.1-1.2 1.1-1.2-1.4-1-1.5-3.8-1.5-3.8v-11.3c1.4 1.1 1.1 3.6 1.1 3.6v7c0 4.7 5.7 4.2 5.7 4.2 1.3-0.5 0.1-1.3 0.1-1.3-2.1-0.8-2.3-3-2.3-3v-9.1c0-3.6-1.5-5.5-3-6.4 8.5-0.9 12.6-3.6 14.5-7.9 3.7 0.1 10.5 0.6 16.9 2.4l0.1-0.3c-6.4-1.8-13.1-2.3-16.9-2.4 0.2-0.4 0.3-0.9 0.5-1.4 4.3-0.2 10.7-0.2 16.9 1.1z" fill="#010101"/>
		<path d="m430 149c1.8 1.7 2.9 3.7 2.9 5.8 0 10.1-7.5 10.4-16.9 10.4s-16.9-1.4-16.9-10.4c0-2.2 1.1-4.2 2.9-5.8 3-2.8 8.2-1.3 14-1.3s10.9-1.5 14 1.3z" fill="#F5CCB3"/>
		<path d="m410.4 155.4c0 2.8-1.6 5-3.5 5s-3.5-2.3-3.5-5c0-2.8 1.6-5 3.5-5 2-0.1 3.5 2.2 3.5 5z" fill="#fff"/>
		<path d="m409.3 155.4c0 1.9-1.1 3.4-2.3 3.4-1.3 0-2.3-1.5-2.3-3.4s1.1-3.4 2.3-3.4 2.3 1.6 2.3 3.4z" fill="#AF5C51"/>
		<path d="m429.3 155.4c0 2.8-1.6 5-3.5 5s-3.5-2.3-3.5-5c0-2.8 1.6-5 3.5-5 1.9-0.1 3.5 2.2 3.5 5z" fill="#fff"/>
		<path d="m428.1 155.4c0 1.9-1.1 3.4-2.3 3.4-1.3 0-2.3-1.5-2.3-3.4s1.1-3.4 2.3-3.4c1.3 0 2.3 1.6 2.3 3.4z" fill="#AF5C51"/>
		<path d="m417 159.8c0 0.5-0.4 0.9-0.9 0.9s-0.9-0.4-0.9-0.9 0.4-0.9 0.9-0.9 0.9 0.4 0.9 0.9z" fill="#AF5C51"/>
		<path d="m414.1 162c-0.1-0.1 0-0.3 0.2-0.4 0.1-0.1 0.3 0 0.4 0.2 0.2 0.6 0.8 1.1 1.5 1.1s1.3-0.4 1.5-1.1c0.1-0.1 0.2-0.2 0.4-0.2s0.2 0.2 0.2 0.4c-0.3 0.9-1.1 1.4-2 1.4s-1.9-0.5-2.2-1.4z" fill="#AF5C51"/>
		<path d="m394.6 166.1c0 0.2-0.3 0.4-0.6 0.4s-0.6-0.2-0.6-0.4 0.3-0.4 0.6-0.4 0.6 0.1 0.6 0.4z" fill="#C4E5D9"/>
		<path d="m396.3 167c0 0.2-0.3 0.4-0.6 0.4s-0.6-0.2-0.6-0.4 0.3-0.4 0.6-0.4c0.3 0 0.6 0.2 0.6 0.4z" fill="#C4E5D9"/>
		<path d="m397.3 168.2c0 0.2-0.3 0.4-0.6 0.4s-0.6-0.2-0.6-0.4 0.3-0.4 0.6-0.4 0.6 0.2 0.6 0.4z" fill="#C4E5D9"/>
		<path d="m398.3 169.6c0 0.2-0.3 0.4-0.6 0.4s-0.6-0.2-0.6-0.4 0.3-0.4 0.6-0.4 0.6 0.2 0.6 0.4z" fill="#C4E5D9"/>
		<path d="m399.3 170.9c0 0.2-0.3 0.4-0.6 0.4s-0.6-0.2-0.6-0.4 0.3-0.4 0.6-0.4c0.3 0 0.6 0.2 0.6 0.4z" fill="#C4E5D9"/>
		<path d="m400.7 172.1c0 0.2-0.3 0.4-0.6 0.4s-0.6-0.2-0.6-0.4 0.3-0.4 0.6-0.4c0.3 0 0.6 0.2 0.6 0.4z" fill="#C4E5D9"/>
		<path d="m402.7 172.8c0 0.2-0.3 0.4-0.6 0.4s-0.6-0.2-0.6-0.4 0.3-0.4 0.6-0.4c0.3 0 0.6 0.2 0.6 0.4z" fill="#C4E5D9"/>
		<path d="m404.7 172.8c0 0.2-0.3 0.4-0.6 0.4s-0.6-0.2-0.6-0.4 0.3-0.4 0.6-0.4c0.3 0 0.6 0.2 0.6 0.4z" fill="#C4E5D9"/>
		<path d="m406.7 172.5c0 0.2-0.3 0.4-0.6 0.4s-0.6-0.2-0.6-0.4 0.3-0.4 0.6-0.4c0.3 0 0.6 0.2 0.6 0.4z" fill="#C4E5D9"/>
		<path d="m537.4 210.2l0.9-14.2 2.4-4s-5.4 2.2-14.3 2.2c-9 0-14.3-2.2-14.3-2.2l2.6 4.4 0.9 13.8c0 1.5 4.9 2.7 10.9 2.7s10.9-1.2 10.9-2.7" fill="#D34A47"/>
		<path d="m534.7 143.8l1.8-7.1 9.9-10.4-2.6-2.2-10.5 11.1-2.1 8.5c-1.5-0.1-3.1-0.1-4.7-0.1-11.1 0-20 1.3-20 2.8 0 1.6 9 2.8 20 2.8 11.1 0 20-1.3 20-2.8 0.1-1.2-4.8-2.2-11.8-2.6" fill="#D34A47"/>
		<path d="m533.7 147.8s-0.4 0.1-1.5 0.1-1.9 0-2.3-0.3c-0.1-0.1-0.1-0.2-0.1-0.3 0-0.2 0.1-0.3 0.3-0.4l0.2 0.3c-0.1 0-0.1 0.1-0.1 0.1 0 0.2 1.2 0.3 2.1 0.2 0.9 0 2-0.1 2-0.2 0 0-0.1-0.1-0.2-0.1l0.2-0.3c0.2 0.1 0.4 0.2 0.4 0.4-0.1 0.4-0.7 0.4-1 0.5" fill="#fff"/>
		<path d="m546.4 126.3c0.2-0.3-0.1-1-0.8-1.6s-1.5-0.9-1.8-0.6c-0.2 0.3 0.1 1 0.8 1.6 0.8 0.6 1.6 0.9 1.8 0.6" fill="#D34A47"/>
		<path d="m537 175.5c-0.2-2.3 4.9-5.5 3.6-5.6-2.9 0.2-4.3 3.4-5.7 6.7-0.5 1.2-2.3 6.5-3.5 5.8-1.2-0.6 1.5-4.9 2.3-7.5-0.9 0.6-4.1 3.2-4.9 0.8-1.3 1.1-4.2 1.8-3.9-1.2-0.7 1.3-2.3 3-4.2 2.3-2.5-1 1.5-9 2.4-8.6 1 0.4-0.2 2.2-0.5 2.9-0.7 1.6-1.5 3.5-0.9 3.9 0.9 0.7 3.4-2.6 3.4-2.7 0.5-0.6 1.8-4.6 2.8-4.1 1.1 0.5-2.6 5.7-1.3 6.8 0.3 0.2 1.4-0.1 2.1-0.9 0.4-0.5 0.3-1.6 1.8-5.1 1.5-3.6 2.8-8 3.8-7.7s0.2 2.6-0.2 3.5c-1.7 4-4.7 10.6-3.3 10.1s2.1-0.5 3.5-2.1 1.3-4.3 2.2-4.2 0.8 0.9 0.5 1.6c0.9-1 4.3-3.2 5.1-1.1 1 2.6-4.8 6.3-3.4 6.1s3.7-1.6 4.7-2.9l2.7-24.2s-2.7 2.2-19.9 2.2-19.6-2.2-19.6-2.2l2.3 22.1c1.2-3.5 4.1-10.4 8.7-10.2 2.1 0.1 4.8 4.1 2.5 4.2-1 0.1-1.1-2-2.3-2.3-0.9-0.2-2 0.5-2.8 1.2-1.5 1.5-4.8 7.4-4.4 10.4 0.6 3.8 5.2-1.3 6-2.8 0.6-1.1 0.9-4.2 2.1-3.9s-0.1 3.6-1 6.4c-1 3.2-1.5 6.6-2.7 6.2s0.8-4.6 0.7-5.3c-1.2 1.1-3.3 3.8-6 2.4l1.4 13.7s3.8 3 15.2 3 15.3-2.9 15.3-2.9l1.8-15.9c-1.6 1.4-6.2 3.9-6.4 1.1" fill="#D34A47"/>
		<path d="m655.8 146.3l-4.7 52.8-21.2 5.9-21.1-5.9-4.7-52.8h51.7z" fill="#E44D26"/>
		<path d="m630 200.4l17.1-4.7 4-45.1h-21.1v49.8z" fill="#F16529"/>
		<path d="m620.8 163.5h9.2v-6.5h-16.2l0.2 1.7 1.6 17.8h14.4v-6.5h-8.6l-0.6-6.5z" fill="#EBEBEB"/>
		<path d="m622.3 179.9h-6.5l0.9 10.2 13.3 3.7v-6.8l-7.2-1.9-0.5-5.2z" fill="#EBEBEB"/>
		<path d="m608.9 131.9h3.3v3.3h3v-3.3h3.3v9.8h-3.3v-3.3h-3v3.3h-3.3v-9.8z"/>
		<path d="m622.8 135.2h-2.9v-3.3h9.1v3.3h-2.9v6.6h-3.3v-6.6z"/>
		<path d="m630.5 131.9h3.4l2.1 3.5 2.1-3.5h3.4v9.8h-3.3v-4.9l-2.3 3.5h0.1l-2.3-3.5v4.9h-3.2v-9.8z"/>
		<path d="m643.2 131.9h3.3v6.6h4.6v3.3h-7.9v-9.9z"/>
		<path d="m630 176.6h8l-0.8 8.4-7.2 2v6.7l13.3-3.7 0.1-1.1 1.5-17 0.2-1.7h-15v6.4h-0.1z" fill="#fff"/>
		<path d="m630 163.5h15.6l0.1-1.5 0.3-3.3 0.2-1.7h-16.2v6.5z" fill="#fff"/>
		<path d="m726.8 189.7s-3 1.7 2.1 2.3c6.2 0.7 9.3 0.6 16.1-0.7 0 0 1.8 1.1 4.3 2.1-15.2 6.5-34.4-0.4-22.5-3.7" fill="#5382A1"/>
		<path d="m725 181.2s-3.3 2.5 1.8 3c6.6 0.7 11.8 0.7 20.8-1 0 0 1.2 1.3 3.2 2-18.5 5.3-39 0.3-25.8-4" fill="#5382A1"/>
		<path d="m740.6 166.7c3.7 4.3-1 8.2-1 8.2s9.5-4.9 5.1-11.1c-4.1-5.7-7.2-8.6 9.7-18.4 0.1 0-26.5 6.7-13.8 21.3" fill="#E76F00"/>
		<path d="m760.8 196s2.2 1.8-2.4 3.2c-8.8 2.7-36.5 3.5-44.3 0.1-2.8-1.2 2.4-2.9 4.1-3.2 1.7-0.4 2.7-0.3 2.7-0.3-3.1-2.2-19.9 4.3-8.6 6.1 31 5 56.5-2.3 48.5-5.9" fill="#5382A1"/>
		<path d="m728.3 172.3s-14.1 3.4-5 4.6c3.9 0.5 11.5 0.4 18.7-0.2 5.8-0.5 11.7-1.5 11.7-1.5s-2.1 0.9-3.6 1.9c-14.3 3.8-42 2-34.1-1.8 6.8-3.3 12.3-3 12.3-3" fill="#5382A1"/>
		<path d="m753.6 186.5c14.6-7.6 7.8-14.9 3.1-13.9-1.2 0.2-1.7 0.4-1.7 0.4s0.4-0.7 1.2-1c9.3-3.3 16.5 9.7-3 14.8 0.1 0.1 0.3-0.1 0.4-0.3" fill="#5382A1"/>
		<path d="m744.8 129.6s8.1 8.1-7.7 20.5c-12.6 10-2.9 15.6 0 22.1-7.4-6.6-12.8-12.5-9.1-17.9 5.3-8 20.1-11.9 16.8-24.7" fill="#E76F00"/>
		<path d="m729.7 207c14 0.9 35.5-0.5 36-7.1 0 0-1 2.5-11.6 4.5-11.9 2.2-26.7 2-35.4 0.5 0 0.1 1.8 1.6 11 2.1" fill="#5382A1"/>
		<path d="m25.8 274.5h57.6v57.6h-57.6v-57.6z" fill="#F7DF1E"/>
		<path d="m41 322.7l4.4-2.7c0.9 1.5 1.6 2.8 3.5 2.8 1.8 0 2.9-0.7 2.9-3.4v-18.4h5.4v18.5c0 5.6-3.3 8.2-8.1 8.2-4.4-0.1-6.9-2.3-8.1-5"/>
		<path d="m60.1 322.1l4.4-2.6c1.2 1.9 2.7 3.3 5.3 3.3 2.2 0 3.7-1.1 3.7-2.7 0-1.9-1.5-2.5-3.9-3.6l-1.4-0.6c-3.9-1.7-6.5-3.8-6.5-8.2 0-4.1 3.1-7.2 7.9-7.2 3.4 0 5.9 1.2 7.7 4.3l-4.2 2.7c-0.9-1.7-1.9-2.3-3.5-2.3s-2.6 1-2.6 2.3c0 1.6 1 2.3 3.3 3.3l1.4 0.6c4.6 2 7.2 4 7.2 8.5 0 4.9-3.8 7.5-9 7.5-5 0.2-8.2-2.2-9.8-5.3"/>
			<path d="m923.2 157.3h4.8s-9 12.1-9.7 13.1c-0.2 0.3-0.6 0.7-0.8 1.1-0.5 1.1-0.9 3.4-0.9 3.4h-4.4s0.7-2.5 0.7-3.8c0-1.1-0.6-2.3-0.9-3.4-0.3-1.2-0.8-3.4-0.8-3.4h4.5l0.6 2.5 6.9-9.5" fill="#1A1918"/>
			<path d="m914.1 159.9c0.9 0.5 1.4 3.5 1.4 3.5s-4.7 0.1-7.2 0.1h-2.2l-2.7 11.6h-4.1s2.5-12.6 3.1-14.9c0.2-0.7 1.3-0.6 3.2-0.6h3.1c2.1-0.1 4.4-0.3 5.4 0.3" fill="#1A1918"/>
			<path d="m895.1 165.5s0.1-0.7-0.4-1.6c-0.5-0.7-0.9-0.9-2.2-0.9-3.5-0.1-3.5 2.5-3.5 2.5h6.1zm3.9-3c0.5 1.9-0.5 6.3-0.5 6.3s-5.2-0.1-8 0c-0.9 0-1.9-0.1-2.2 0.3-0.4 0.6 0.1 1.5 0.6 1.8 0.5 0.4 1.4 0.5 1.8 0.5 2.3 0.3 7.1 0.1 7.1 0.1l-0.8 3.7s-6.8 0.3-10.2-0.5c-0.7-0.2-1.3-0.5-1.7-0.9-0.1-0.1-0.2-0.3-0.3-0.4s-0.3-0.5-0.5-0.8c-0.8-2.1 0.1-6 0.9-8.1 0.1-0.2 0.2-0.6 0.4-0.8 0.2-0.3 0.3-0.7 0.4-0.9 0.1-0.1 0.2-0.2 0.3-0.4s0.2-0.3 0.3-0.4c0.3-0.4 0.7-0.6 1.1-0.9 1.4-1.1 4-1.9 7-1.6 1.2 0.1 2.9 0.5 3.8 1.7 0.2 0.2 0.3 0.9 0.5 1.3z" fill="#1A1918"/>
			<path d="m880.3 159.5h3.9s-2.2 10.4-3.3 15.5h-4.5c-3.2 0-6 0.4-7.2-1.9-1.2-2.2-0.1-5.8 0.5-8.3 0.4-1.7 1.1-5.3 1.1-5.3h4.1s-1.2 5.5-1.6 8.3c-0.2 1-0.5 1.9-0.2 2.7 0.4 0.7 0.8 0.7 2.3 0.8h2l2.9-11.8" fill="#1A1918"/>
			<path d="m861.9 167c0.4-1.5 1-3.1 0.9-4.4-0.1-1.4-1.3-2.7-2-3-2.3-0.8-4.5 0.3-5.3 1.3-1.1 1.2-1.5 2.6-1.9 4.5-0.3 1.4-0.5 2.9 0 4.1 0.9 2 3.9 1.5 7 1.6 0.5-1.3 0.9-2.7 1.3-4.1zm5.4-5.8c0.4 3.3-1.3 6.9-2.5 10 1.2 0.1 2.3 0 2.4 0.1s-0.8 3.8-1.1 3.8c-1 0-4.2 0.1-5.5 0.1-4.3 0-8.4 0.3-10.5-1.9-0.8-0.9-1.4-2.4-1.6-3.4-0.2-1.8 0.1-3.7 0.5-5.3 0.4-1.4 0.8-2.8 1.6-4.1 1.8-3.2 5-5.5 10.3-5 1 0.1 2.5 0.6 3.4 1.1 0.1 0 0.3 0.2 0.3 0.2 1.4 0.8 2.5 2.7 2.7 4.4z" fill="#1A1918"/>
			<path d="m848.1 159.5c-0.3 1.2-0.5 2.6-0.8 3.7h-4.3c0.3-1.3 0.6-2.6 0.9-3.8 1.4 0.1 2.7 0.1 4.2 0.1" fill="#1A1918"/>
			<path d="m842.8 164.4h4.2c-0.6 3.1-1.6 8-2.5 11.4-0.5 2.1-0.9 3.7-2.3 4.8-0.1 0.1-0.2 0.1-0.3 0.2-0.3 0.3-1.5 0.5-2.2 0.6-1.1 0.1-2.4 0-3.7 0 0.4-1.3 0.8-2.9 1.1-4.1 3.3 0.4 3.4-2.7 4.1-5.8 0.3-1.7 1.4-6.4 1.6-7.1" fill="#1A1918"/>
			<g transform="translate(0 8.8276)" fill="#21609B">
				<path d="m833 163.5l-0.1 0.2c-1.5 3-4.3 4.8-8.2 4.9-1.8 0-3.6-0.4-4.7-0.9-2.4-1.1-4.5-3.1-5.6-5.3-1.6-3.1-1.9-7.5 1.4-10.7 0.1 0-0.4 0.7-0.4 0.7l-0.1 0.3c-2.4 7.6 5 14 12.3 13.3 1.8-0.2 4-1.1 5.4-2.5"/>
				<path d="m828.6 160.4c1.8 0 3.7-0.8 4.8-2-1 2.5-3.8 4.1-7.7 3.6-3.2-0.4-6.3-3.7-6.6-6.9-0.2-2.3 0.6-3.8 1.9-5.5-0.5 0.9-0.6 1.6-0.7 2-0.4 5.1 4.2 8.8 8.3 8.8"/>
				<path d="m833.2 154.1c-0.3 0.7-1.9 1.9-2.6 2-2.8 0.6-4.7-0.7-5.6-2.3-0.1-0.2-0.4-0.9-0.5-1-0.4-1.3-0.2-3.2 0.9-4.2-0.3 0.9-0.4 2-0.2 2.7 0.1 0.4 0.4 1.2 0.8 1.6 0.6 0.9 1 1.1 1.7 1.5 0.3 0.2 0.7 0.4 0.9 0.4 0.7 0.4 2.2 0.9 4.6-0.7"/>
			</g>
			<linearGradient id="SVGID_47_" y2="697.19" gradientUnits="userSpaceOnUse" x2="1.0193" gradientTransform="matrix(239.77 0 0 -255.84 -53.431 1.7869e5)" y1="697.34" x1=".8501">
			<stop offset="0"/>
			<stop stop-color="#fff" offset="1"/>
		</linearGradient>
		<path d="m171.2 317.4c12.7 17.4 25.2-4.8 25.2-18.2 0-15.8-16-24.6-25.2-24.6-14.7 0-28.7 12.2-28.7 28.8 0 18.5 16.1 28.8 28.7 28.8-2.9-0.4-12.4-2.5-12.6-24.5-0.1-14.9 4.9-20.8 12.5-18.2 0.2 0.1 8.5 3.3 8.5 14 0 10.6-8.4 13.9-8.4 13.9z" fill="url(#SVGID_47_)"/>
			<linearGradient id="SVGID_48_" y2="697.35" gradientUnits="userSpaceOnUse" x2=".6583" gradientTransform="matrix(211.55 0 0 -256 12.707 1.788e5)" y1="697.19" x1=".8501">
			<stop offset="0"/>
			<stop stop-color="#fff" offset="1"/>
		</linearGradient>
		<path d="m171.2 289.5c-8.4-2.9-18.7 4-18.7 17.9 0 22.7 16.8 24.8 18.9 24.8 14.7 0 28.7-12.2 28.7-28.8 0-18.5-16.1-28.8-28.7-28.8 3.5-0.5 18.9 3.8 18.9 24.9 0 13.7-11.5 21.2-19 18-0.2-0.1-8.5-3.3-8.5-14-0.1-10.7 8.4-14 8.4-14z" fill="url(#SVGID_48_)"/>
	<g fill="#F35045">
		<path d="m295.1 321.3c0.5 0.7 0.7 0.6 1.1 0.5s18.3-6.2 18.9-6.4c0.5-0.2 0.4-0.4 0.2-0.7s-6.2-8.4-6.5-8.9-0.5-0.4-0.9-0.2l-19.1 5s5.9 10.1 6.3 10.7z"/>
		<path d="m316.6 313v-9.5c-2.1 0.6-4.9 1.3-5.9 1.6 1.6 2.2 4.1 5.5 5.9 7.9z"/>
		<path d="m310.7 293.3c-0.3 0.1-6.8 1.2-7.2 1.3s-0.3 0.3-0.1 0.5l5.7 7.9s7-1.7 7.4-1.8h0.1v-1c-1.3-1.6-4.7-6-5-6.4-0.4-0.6-0.6-0.5-0.9-0.5z"/>
		<path d="m269.7 281c1.4-0.1 1.5 0.3 2.2 1.2l15.6 26 19.6-4.7c-1.1-1.5-6-8.5-6.5-9.2s0-1.1 0.9-1.2 8.4-1.4 9-1.5 1.2-0.3 2.2 0.9c0.5 0.6 2.3 2.9 4 5v-12.2c0-3-1.1-5.5-3.2-7.6s-4.7-3.2-7.6-3.2h-36c-3 0-5.5 1.1-7.6 3.2-1.2 1.2-2.1 2.6-2.6 4.1 3.4-0.3 9-0.8 10-0.8z"/>
		<path d="m296.9 324.8c-1.6 0.5-2.4 0.7-3.5-0.8-0.8-1.1-5.2-9-7.3-12.8-4 1.1-11.4 3-13.6 3.5-2.1 0.5-3-0.7-3.3-1.5-0.2-0.5-6.3-13.7-10.2-22.1v30.2c0 3 1.1 5.5 3.2 7.6s4.7 3.2 7.6 3.2h36c3 0 5.5-1.1 7.6-3.2s3.2-4.7 3.2-7.6v-3.6c-4.4 1.7-18.6 6.8-19.7 7.1z"/>
		<path d="m272.6 311.7c0.6-0.1 11.5-2.8 11.8-2.8 0.2-0.1 0.4-0.2 0.1-0.6s-14.6-25.2-14.6-25.2c-0.1-0.2-0.1-0.3-0.5-0.3-0.3 0-8.4 0.7-10.3 0.9-0.1 0.4-0.1 0.8-0.1 1.2 1.9 3.9 12.9 26.5 12.9 26.7 0.1 0.2 0.1 0.3 0.7 0.1z"/>
	</g>
		<path d="m408.2 289.7v38.7l-3.8 2.3-3.8-2.3v-38.7l-9.9 6.1v33.2l13.7 8.4 13.8-8.4v-33.1l-10-6.2zm-3.8-20.4l-28.8 17.4v33.1l7.5 4.4v-33.1l21.3-13 21.3 12.9h0.1v33.1l7.4-4.4v-33.1l-28.8-17.3z" fill="#EC6737"/>
		<path d="m492.3 278h57.3v50.8h-57.3v-50.8z" fill="#E6E6E1"/>
		<path d="m549.6 278h-57.3l28.7 41.9 28.6-41.9" fill="#D8D8D3"/>
		<path d="m514.9 328.7h12.1l-6.1-8.9-6 8.9" fill="#B4B6B4"/>
		<path d="m520.9 304.6l-12.2-18v15.4l7 10.3 5.2-7.7" fill="#1A1918"/>
		<path d="m520.9 304.6l5.3 7.7 6.9-10.1v-15.5l-12.2 17.9" fill="#ED9D4A"/>
		<path d="m520.9 304.6l-5.2 7.7 5.3 7.7 5.3-7.7-5.4-7.7" fill="#BB7731"/>
		<path d="m500 320h8.7v-18l-8.7-12.8v30.8" fill="#4CB2D4"/>
		<path d="m500 286.6v2.7l8.7 12.8v-15.4h-8.7" fill="#1B82AD"/>
		<path d="m533.1 302.2v17.8h8.7v-30.6l-8.7 12.8" fill="#C02439"/>
		<path d="m541.8 286.6h-8.7v15.5l8.7-12.7v-2.8" fill="#8F202F"/>
		<path d="m662.2 321.1h-49.5c-2.2 0-4.1-1.9-4.1-4.1v-27.2c0-2.2 1.9-4.1 4.1-4.1h49.3c2.2 0 4.1 1.9 4.1 4.1v27.2c0.1 2.2-1.6 4.1-3.9 4.1zm-49.5-32.8c-0.7 0-1.4 0.7-1.4 1.4v27.3c0 0.9 0.7 1.4 1.4 1.4h49.3c0.9 0 1.4-0.7 1.4-1.4v-27.2c0-0.9-0.7-1.4-1.4-1.4 0.2-0.1-49.3-0.1-49.3-0.1zm4.2 24.5v-19h5.5l5.5 6.9 5.5-6.9h5.5v19h-5.5v-10.8l-5.5 6.9-5.5-6.9v10.9h-5.5v-0.1zm34.6 0l-8.3-9.1h5.5v-9.8h5.5v9.7h5.5l-8.2 9.2z"/>
	<g fill="#D91B77">
		<path d="m725.2 317.2v-9.2h9.2v-9.2h9.2v-9.2h9.2v27.6h-27.6z"/>
		<path d="m755.2 289.5c15.3 0 27.6 12.4 27.6 27.6h-27.6v-27.6z"/>
	</g>
<g fill="#00546B">
	<path d="m894.8 318.8c-3.1-0.1-5.6 0.2-7.6 1.1-0.6 0.2-1.5 0.2-1.6 1 0.3 0.3 0.4 0.8 0.6 1.3 0.5 0.8 1.3 1.8 2 2.4 0.8 0.6 1.6 1.3 2.5 1.8 1.5 0.9 3.2 1.5 4.7 2.4 0.9 0.5 1.7 1.3 2.6 1.8 0.4 0.3 0.7 0.8 1.3 1v-0.1c-0.3-0.4-0.4-0.9-0.6-1.3-0.4-0.4-0.8-0.7-1.2-1.1-1.1-1.5-2.5-2.9-4.1-4-1.3-0.9-4-2-4.5-3.5l-0.1-0.1c0.9-0.1 1.9-0.4 2.7-0.6 1.3-0.4 2.5-0.3 3.9-0.6 0.6-0.2 1.3-0.4 1.9-0.5v-0.4c-0.7-0.7-1.2-1.6-2-2.3-2-1.7-4.2-3.4-6.5-4.8-1.2-0.8-2.8-1.3-4.1-2-0.5-0.2-1.3-0.4-1.5-0.7-0.7-0.9-1.1-2-1.6-3-1.1-2.2-2.2-4.5-3.2-6.8-0.7-1.5-1.1-3.1-2-4.5-4-6.7-8.4-10.7-15.1-14.6-1.4-0.8-3.2-1.2-5-1.6-1 0-2-0.1-2.9-0.2-0.6-0.3-1.3-1-1.8-1.4-2.2-1.4-8-4.5-9.6-0.4-1.1 2.5 1.6 5.1 2.5 6.3 0.7 0.9 1.5 1.9 2 2.9 0.3 0.7 0.4 1.4 0.6 2.1 0.6 1.7 1.2 3.6 2 5.2 0.4 0.8 0.9 1.7 1.4 2.4 0.3 0.4 0.9 0.6 1 1.3-0.5 0.8-0.6 2-0.9 2.9-1.4 4.4-0.9 9.9 1.1 13.2 0.6 1 2.1 3.1 4.1 2.3 1.8-0.7 1.4-2.9 1.9-4.9 0.1-0.5 0-0.8 0.3-1.1v0.1c0.5 1.1 1.1 2.2 1.6 3.2 1.2 1.9 3.3 3.9 5.1 5.2 0.9 0.7 1.7 1.9 2.9 2.3v-0.1h-0.1c-0.2-0.4-0.6-0.5-0.9-0.8-0.7-0.7-1.5-1.6-2-2.3-1.6-2.2-3.1-4.6-4.4-7.1-0.6-1.2-1.2-2.5-1.7-3.8-0.2-0.5-0.2-1.2-0.6-1.4-0.6 0.9-1.4 1.6-1.9 2.7-0.7 1.7-0.8 3.8-1.1 5.9-0.2 0-0.1 0-0.2 0.1-1.3-0.3-1.7-1.6-2.2-2.7-1.2-2.8-1.4-7.2-0.4-10.5 0.3-0.8 1.4-3.4 1-4.2-0.2-0.7-1-1.2-1.4-1.8-0.5-0.7-1.1-1.7-1.4-2.5-0.9-2.2-1.4-4.6-2.4-6.8-0.5-1-1.3-2.1-2-3-0.7-1.1-1.6-1.8-2.2-3.1-0.2-0.4-0.5-1.1-0.2-1.6 0.1-0.3 0.2-0.4 0.5-0.5 0.5-0.4 2 0.1 2.5 0.4 1.4 0.6 2.7 1.1 3.9 2 0.5 0.4 1.1 1.1 1.8 1.3h0.8c1.3 0.3 2.7 0.1 3.8 0.4 2.1 0.7 4 1.6 5.6 2.7 5.1 3.2 9.4 7.9 12.2 13.4 0.5 0.9 0.7 1.7 1.1 2.7 0.8 1.9 1.8 3.9 2.7 5.8 0.8 1.8 1.6 3.7 2.8 5.2 0.6 0.8 2.9 1.3 4 1.7 0.8 0.4 2 0.7 2.7 1.1 1.3 0.8 2.7 1.8 3.9 2.7 1 0.6 2.9 1.6 3 2.4z"/>
	<path d="m854.9 284.8c-0.7 0-1.1 0.1-1.6 0.2v0.1h0.1c0.3 0.6 0.9 1.1 1.3 1.6 0.3 0.6 0.6 1.3 0.9 1.9l0.1-0.1c0.5-0.4 0.8-1 0.8-2-0.2-0.3-0.3-0.5-0.5-0.8-0.3-0.4-0.8-0.6-1.1-0.9z"/>
</g>
		<g transform="translate(430 51)" fill="#83CD29">
			<path d="m-317.9 360c-0.3 0-0.5 0.1-0.7 0.2l-6.9 4c-0.4 0.3-0.7 0.7-0.7 1.3v7.9c0 0.5 0.3 1 0.7 1.3l1.8 1c0.9 0.4 1.2 0.4 1.6 0.4 1.3 0 2-0.8 2-2.1v-8c0-0.1-0.1-0.2-0.2-0.2h-0.9c-0.1 0-0.2 0.1-0.2 0.2v7.8c0 0.6-0.6 1.2-1.6 0.7l-1.9-1.1c-0.1 0-0.1-0.1-0.1-0.2v-7.9c0-0.1 0.1-0.2 0.1-0.2l6.8-3.9h0.2l6.8 3.9c0.1 0 0.1 0.1 0.1 0.2v7.9c0 0.1 0 0.2-0.1 0.2l-6.9 3.9h-0.2l-1.8-1.1h-0.2c-0.5 0.3-0.6 0.3-1 0.5-0.1 0-0.3 0.1 0.1 0.3l2.3 1.4c0.2 0.1 0.5 0.2 0.7 0.2 0.3 0 0.5-0.1 0.7-0.2l6.9-3.9c0.4-0.3 0.7-0.7 0.7-1.3v-7.9c0-0.5-0.3-1-0.7-1.3l-6.9-4h-0.5z"/>
			<path d="m-316.1 365.6c-2 0-3.1 0.8-3.1 2.2 0 1.5 1.2 1.9 3 2.1 2.2 0.2 2.4 0.5 2.4 1 0 0.8-0.6 1.1-2.1 1.1-1.8 0-2.2-0.5-2.3-1.4 0-0.1-0.1-0.2-0.2-0.2h-0.9c-0.1 0-0.2 0.1-0.2 0.2 0 1.2 0.6 2.5 3.6 2.5 2.2 0 3.4-0.9 3.4-2.3 0-1.5-1-1.9-3.1-2.2s-2.3-0.4-2.3-0.9c0-0.4 0.2-1 1.7-1 1.4 0 1.9 0.3 2.1 1.3 0 0.1 0.1 0.2 0.2 0.2h0.9c0.1 0 0.1 0 0.1-0.1l0.1-0.1c0-1.6-1.1-2.4-3.3-2.4z"/>
		</g>
			<path d="m71.7 400.6c-0.1 0-0.2 0-0.2 0.1-0.1 0.1-0.2 0.2-0.2 0.4v11.1c0 0.1-0.1 0.2-0.1 0.3-0.1 0.1-0.2 0.1-0.3 0l-1.8-1c-0.3-0.2-0.6-0.2-0.9 0l-7.3 4.2c-0.3 0.2-0.4 0.5-0.4 0.8v8.4c0 0.3 0.2 0.6 0.4 0.8l7.3 4.2c0.3 0.2 0.6 0.2 0.9 0l7.3-4.2c0.3-0.2 0.4-0.4 0.4-0.8v-20.9c0-0.3-0.2-0.6-0.5-0.8l-4.3-2.4c-0.1-0.2-0.2-0.2-0.3-0.2zm-46.7 10.5c-0.1 0-0.3 0-0.4 0.1l-7.3 4.2c-0.3 0.2-0.4 0.4-0.4 0.8v11.3c0 0.2 0.1 0.3 0.2 0.4s0.3 0.1 0.4 0l4.3-2.5c0.3-0.2 0.5-0.4 0.5-0.8v-5.3c0-0.3 0.2-0.6 0.4-0.8l1.8-1.1c0.1-0.1 0.3-0.1 0.4-0.1 0.2 0 0.3 0 0.4 0.1l1.8 1.1c0.3 0.2 0.4 0.4 0.4 0.8v5.3c0 0.3 0.2 0.6 0.5 0.8l4.3 2.5c0.1 0.1 0.3 0.1 0.4 0s0.2-0.2 0.2-0.4v-11.3c0-0.3-0.2-0.6-0.4-0.8l-7.3-4.2c0.1-0.1 0-0.1-0.2-0.1zm65.3 0.1c-0.2 0-0.3 0-0.4 0.1l-7.3 4.2c-0.3 0.2-0.4 0.4-0.4 0.8v8.4c0 0.3 0.2 0.6 0.5 0.8l7.2 4.1c0.3 0.2 0.6 0.2 0.9 0l4.4-2.4c0.1-0.1 0.2-0.2 0.2-0.4s-0.1-0.3-0.2-0.4l-7.3-4.2c-0.1-0.1-0.2-0.2-0.2-0.4v-2.6c0-0.2 0.1-0.3 0.2-0.4l2.3-1.3c0.1-0.1 0.3-0.1 0.4 0l2.3 1.3c0.1 0.1 0.2 0.2 0.2 0.4v2.1c0 0.2 0.1 0.3 0.2 0.4s0.3 0.1 0.4 0l4.4-2.5c0.3-0.2 0.4-0.4 0.4-0.8v-2c0-0.3-0.2-0.6-0.4-0.8l-7.2-4.2c-0.3-0.2-0.5-0.2-0.6-0.2zm-21.8 6.2h0.1l2.5 1.4c0.1 0 0.1 0.1 0.1 0.2v2.9c0 0.1 0 0.2-0.1 0.2l-2.5 1.4h-0.2l-2.5-1.4c-0.1 0-0.1-0.1-0.1-0.2v-2.9c0-0.1 0-0.2 0.1-0.2l2.5-1.4h0.1z" fill="#404137"/>
			<path d="m46.8 411.1c-0.2 0-0.3 0-0.4 0.1l-7.3 4.2c-0.3 0.2-0.4 0.5-0.4 0.8v8.4c0 0.3 0.2 0.6 0.4 0.8l7.3 4.2c0.3 0.2 0.6 0.2 0.9 0l7.3-4.2c0.3-0.2 0.4-0.4 0.4-0.8v-8.4c0-0.3-0.2-0.6-0.4-0.8l-7.3-4.2c-0.2 0-0.4-0.1-0.5-0.1z" fill="#83CD29"/>
			<path d="m90.3 418.6c-0.1 0-0.1 0 0 0l-1.5 0.8c-0.1 0-0.1 0.1-0.1 0.1v1.6c0 0.1 0 0.1 0.1 0.1l1.4 0.8h0.2l1.4-0.8c0.1 0 0.1-0.1 0.1-0.1v-1.6c0-0.1 0-0.1-0.1-0.1l-1.5-0.8z" fill="#83CD29"/>
			<radialGradient id="SVGID_49_" gradientUnits="userSpaceOnUse" cy="1723.9" cx="-49.876" gradientTransform="matrix(.463 0 0 -.463 206.1 1201.5)" r="98.941">
			<stop stop-color="#fff" offset="0"/>
			<stop stop-color="#4C6B97" offset=".5"/>
			<stop stop-color="#231F20" offset="1"/>
		</radialGradient>
		<ellipse cy="415.2" cx="196.9" rx="34.9" ry="18.3" fill="url(#SVGID_49_)"/>
		<ellipse cy="415.2" cx="196.9" rx="33.5" ry="17" fill="#6181B6"/>
		<g fill="#fff">
			<path d="m203.7 420.7l1.7-8.6c0.4-1.9 0.1-3.4-0.9-4.3s-2.6-1.3-5-1.3h-2.9l0.8-4.3c0-0.2 0-0.3-0.1-0.5-0.1-0.1-0.2-0.2-0.4-0.2h-4c-0.3 0-0.5 0.2-0.5 0.4l-1.8 9.1c-0.2-1-0.5-1.9-1.2-2.6-1.2-1.3-3-2-5.5-2h-7.7c-0.3 0-0.5 0.2-0.5 0.4l-3.6 18.4c0 0.2 0 0.3 0.1 0.5 0.1 0.1 0.2 0.2 0.4 0.2h4c0.3 0 0.5-0.2 0.5-0.4l0.9-4.4h3c1.6 0 2.9-0.2 3.9-0.5 1.1-0.4 2-0.9 2.9-1.7 0.7-0.6 1.3-1.3 1.7-2.1l-0.7 3.7c0 0.2 0 0.3 0.1 0.5 0.1 0.1 0.2 0.2 0.4 0.2h4c0.3 0 0.5-0.2 0.5-0.4l2-10.1h2.7c1.2 0 1.5 0.2 1.6 0.3s0.2 0.4 0.1 1.4l-1.6 8.1c0 0.2 0 0.3 0.1 0.5 0.1 0.1 0.2 0.2 0.4 0.2h4.1c0.3-0.1 0.5-0.3 0.5-0.5zm-18.4-7.1c-0.2 1.3-0.7 2.2-1.4 2.7s-1.8 0.8-3.3 0.8h-1.8l1.3-6.6h2.3c1.7 0 2.4 0.4 2.6 0.7 0.4 0.4 0.5 1.3 0.3 2.4z"/>
			<path d="m220.7 408.5c-1.2-1.3-3-2-5.5-2h-7.7c-0.3 0-0.5 0.2-0.5 0.4l-3.6 18.4c0 0.2 0 0.3 0.1 0.5 0.1 0.1 0.2 0.2 0.4 0.2h4c0.3 0 0.5-0.2 0.5-0.4l0.9-4.4h3c1.6 0 2.9-0.2 3.9-0.5 1.1-0.4 2-0.9 2.9-1.7 0.7-0.7 1.3-1.4 1.7-2.2s0.8-1.7 1-2.6c0.5-2.4 0.1-4.3-1.1-5.7zm-4.1 5.1c-0.2 1.3-0.7 2.2-1.4 2.7s-1.8 0.8-3.3 0.8h-1.8l1.3-6.6h2.3c1.7 0 2.4 0.4 2.6 0.7 0.4 0.4 0.5 1.3 0.3 2.4z"/>
		</g>
		<g fill="#000004">
			<path d="m182.4 410c1.5 0 2.5 0.3 3.1 0.8 0.5 0.6 0.6 1.5 0.4 2.9-0.3 1.4-0.8 2.5-1.6 3.1s-2 0.9-3.6 0.9h-2.4l1.5-7.7h2.6zm-9.7 15.5h4l1-4.9h3.4c1.5 0 2.8-0.2 3.7-0.5 1-0.3 1.9-0.8 2.7-1.6 0.7-0.6 1.2-1.3 1.6-2s0.7-1.6 0.9-2.5c0.4-2.2 0.1-3.9-1-5.1s-2.8-1.8-5.1-1.8h-7.7l-3.5 18.4z"/>
			<path d="m192.9 402.2h4l-1 4.9h3.5c2.2 0 3.8 0.4 4.6 1.2s1.1 2 0.8 3.8l-1.7 8.6h-4l1.6-8.1c0.2-0.9 0.1-1.6-0.2-1.9s-1-0.5-2-0.5h-3.2l-2 10.5h-4l3.6-18.5z"/>
			<path d="m213.7 410c1.5 0 2.5 0.3 3.1 0.8 0.5 0.6 0.6 1.5 0.4 2.9-0.3 1.4-0.8 2.5-1.6 3.1s-2 0.9-3.6 0.9h-2.4l1.5-7.7h2.6zm-9.8 15.5h4l1-4.9h3.4c1.5 0 2.8-0.2 3.7-0.5 1-0.3 1.9-0.8 2.7-1.6 0.7-0.6 1.2-1.3 1.6-2s0.7-1.6 0.9-2.5c0.4-2.2 0.1-3.9-1-5.1s-2.8-1.8-5.1-1.8h-7.7l-3.5 18.4z"/>
		</g>
			<linearGradient id="SVGID_50_" y2="697.32" gradientUnits="userSpaceOnUse" x2="1.7418" gradientTransform="matrix(189.38 0 0 -189.81 -14.626 1.3278e5)" y1="697.47" x1="1.5918">
			<stop stop-color="#387EB8" offset="0"/>
			<stop stop-color="#366994" offset="1"/>
		</linearGradient>
		<path d="m310 386.6c-14.6 0-13.7 6.3-13.7 6.3v6.6h13.9v2h-19.4s-9.3-1.1-9.3 13.7 8.1 14.2 8.1 14.2h4.9v-6.8s-0.3-8.1 8-8.1h13.8s7.8 0.1 7.8-7.5v-12.6c0-0.2 1.2-7.8-14.1-7.8zm-7.6 4.4c1.4 0 2.5 1.1 2.5 2.5s-1.1 2.5-2.5 2.5c-1.4 0-2.5-1.1-2.5-2.5s1.1-2.5 2.5-2.5z" fill="url(#SVGID_50_)"/>
			<linearGradient id="SVGID_51_" y2="697.56" gradientUnits="userSpaceOnUse" x2="1.4971" gradientTransform="matrix(189.38 0 0 -189.81 51.374 1.3284e5)" y1="697.71" x1="1.3359">
			<stop stop-color="#FFE052" offset="0"/>
			<stop stop-color="#FFC331" offset="1"/>
		</linearGradient>
		<path d="m310.5 443.8c14.6 0 13.7-6.3 13.7-6.3v-6.6h-13.9v-2h19.4s9.3 1.1 9.3-13.7-8.1-14.2-8.1-14.2h-4.9v6.8s0.3 8.1-8 8.1h-13.8s-7.8-0.1-7.8 7.5v12.6c0 0.1-1.2 7.8 14.1 7.8zm7.6-4.4c-1.4 0-2.5-1.1-2.5-2.5s1.1-2.5 2.5-2.5 2.5 1.1 2.5 2.5-1.1 2.5-2.5 2.5z" fill="url(#SVGID_51_)"/>
		<path d="m444.2 418.4c-2 0-3.7 0.5-5.2 1.2-0.5-1.1-1.1-2-1.2-2.7-0.1-0.8-0.2-1.3-0.1-2.3s0.7-2.3 0.7-2.4c0-0.1-0.1-0.6-1.3-0.6s-2.2 0.2-2.3 0.5-0.3 1-0.5 1.7c-0.2 1-2.3 4.8-3.5 6.8-0.4-0.8-0.7-1.4-0.8-2-0.1-0.8-0.2-1.3-0.1-2.3s0.7-2.3 0.7-2.4-0.1-0.6-1.3-0.6-2.2 0.2-2.3 0.5-0.2 1-0.5 1.7c-0.2 0.7-3 6.9-3.8 8.6-0.4 0.8-0.7 1.5-0.9 1.9v0.1l-0.3 0.6s0 0 0 0c-0.2 0.3-0.3 0.5-0.4 0.5s-0.2-0.8 0-1.8c0.4-2.2 1.4-5.6 1.4-5.7s0.2-0.7-0.7-1c-0.8-0.3-1.1 0.2-1.2 0.2s-0.1 0.2-0.1 0.2 0.9-3.8-1.7-3.8c-1.7 0-3.9 1.8-5.1 3.5-0.7 0.4-2.2 1.2-3.9 2.1-0.6 0.3-1.3 0.7-1.9 1l-0.1-0.1c-3.2-3.4-9.1-5.9-8.9-10.5 0.1-1.7 0.7-6.1 11.4-11.4 8.8-4.4 15.9-3.1 17.1-0.5 1.7 3.8-3.8 10.9-12.9 11.9-3.5 0.4-5.3-1-5.8-1.5s-0.6-0.6-0.7-0.5c-0.3 0.2-0.1 0.6 0 0.9 0.3 0.7 1.4 2 3.3 2.6 1.7 0.5 5.8 0.8 10.7-1.1 5.5-2.1 9.9-8.1 8.6-13.1-1.3-5.1-9.7-6.7-17.6-3.9-4.7 1.7-9.8 4.3-13.5 7.8-4.4 4.1-5.1 7.6-4.8 9.1 1 5.3 8.3 8.7 11.2 11.3-0.1 0.1-0.3 0.2-0.4 0.2-1.5 0.7-7 3.6-8.4 6.7-1.6 3.5 0.3 6 1.5 6.3 3.7 1 7.6-0.8 9.7-3.9s1.8-7.1 0.9-8.9v-0.1c0.4-0.2 0.8-0.4 1.1-0.7 0.7-0.4 1.5-0.9 2.1-1.2-0.4 1-0.6 2.1-0.7 3.8-0.2 2 0.7 4.5 1.7 5.5 0.5 0.4 1 0.5 1.4 0.5 1.2 0 1.8-1 2.4-2.2 0.8-1.5 1.4-3.2 1.4-3.2s-0.9 4.7 1.5 4.7c0.8 0 1.7-1.1 2.1-1.6l0.1-0.1c0.1-0.1 0.1-0.2 0.1-0.2 0.3-0.6 1.1-1.9 2.2-4.1 1.4-2.9 2.8-6.4 2.8-6.4s0.1 0.9 0.6 2.3c0.3 0.8 0.8 1.8 1.2 2.7-0.3 0.5-0.5 0.7-0.5 0.7s0 0 0 0c-0.3 0.4-0.6 0.7-0.9 1.1-1.1 1.4-2.5 2.9-2.7 3.4s-0.2 0.9 0.3 1.2c0.3 0.2 0.8 0.3 1.4 0.2 1-0.1 1.8-0.3 2.1-0.5 0.6-0.2 1.2-0.5 1.8-1 1.1-0.8 1.8-2 1.7-3.6 0-0.9-0.3-1.7-0.7-2.5 0.1-0.1 0.2-0.3 0.3-0.4 1.8-2.6 3.1-5.4 3.1-5.4s0.1 0.9 0.6 2.3c0.2 0.7 0.6 1.5 1 2.3-1.7 1.4-2.7 2.9-3.1 4-0.7 1.9-0.1 2.8 0.8 3 0.4 0.1 1.1-0.1 1.5-0.3 0.6-0.2 1.3-0.5 1.9-1 1.1-0.8 2.2-2 2.1-3.5 0-0.7-0.2-1.4-0.5-2.1 1.4-0.6 3.2-0.9 5.6-0.6 5 0.6 6 3.7 5.8 5s-1.2 2-1.6 2.2c-0.3 0.2-0.5 0.3-0.4 0.5 0 0.2 0.2 0.2 0.5 0.2 0.4-0.1 2.6-1.1 2.7-3.5 0.4-2.9-2.6-6.3-7.8-6.3zm-38.5 13c-1.7 1.8-4 2.5-5 1.9-1.1-0.6-0.7-3.3 1.4-5.2 1.2-1.2 2.8-2.2 3.9-2.9 0.2-0.1 0.6-0.4 1-0.6 0.1 0 0.1-0.1 0.1-0.1 0.1-0.1 0.2-0.1 0.3-0.2 0.8 2.8 0 5.2-1.7 7.1zm12.1-8.2c-0.6 1.4-1.8 5-2.5 4.8-0.6-0.2-1-2.9-0.1-5.6 0.5-1.4 1.4-3 2-3.6 0.9-1 1.9-1.3 2.1-0.9 0.2 0.5-1.2 4.4-1.5 5.3zm9.9 4.8c-0.2 0.1-0.5 0.2-0.6 0.1-0.1 0 0.1-0.2 0.1-0.2s1.2-1.3 1.7-2c0.3-0.4 0.6-0.8 1-1.2v0.1c0.1 1.6-1.5 2.7-2.2 3.2zm7.7-1.8c-0.2-0.1-0.1-0.5 0.5-1.9 0.2-0.5 0.8-1.4 1.7-2.2 0.1 0.3 0.2 0.7 0.2 1-0.1 2-1.5 2.8-2.4 3.1z" fill="#CD6799"/>
		<circle cy="415.2" cx="536.8" r="28.8" fill="#1A171B"/>
		<path d="m549.3 397c-2.9 0.1-5.5 1.7-7.4 3.9-2.1 2.4-3.5 5.3-4.5 8.3-1.8-1.5-3.2-3.4-6.1-4.2-2.2-0.6-4.6-0.4-6.7 1.2-1 0.8-1.7 1.9-2.1 3-0.9 2.8 0.9 5.3 1.7 6.2l1.8 1.9c0.4 0.4 1.2 1.3 0.8 2.7-0.5 1.5-2.3 2.5-4.2 1.9-0.8-0.3-2-0.9-1.8-1.8 0.1-0.4 0.4-0.6 0.5-0.9s0.2-0.5 0.2-0.6c0.3-1.1-0.1-2.6-1.3-2.9-1.1-0.3-2.3-0.1-2.7 1.4-0.5 1.6 0.3 4.6 4.5 5.9 4.9 1.5 9-1.2 9.6-4.6 0.4-2.2-0.6-3.8-2.4-5.9l-1.5-1.6c-0.9-0.9-1.2-2.4-0.3-3.6 0.8-1 1.9-1.4 3.7-0.9 2.6 0.7 3.8 2.5 5.8 4-0.8 2.7-1.3 5.3-1.8 7.7l-0.3 1.8c-1.4 7.4-2.5 11.4-5.3 13.7-0.6 0.4-1.4 1-2.6 1-0.6 0-0.8-0.4-0.8-0.6 0-0.4 0.4-0.6 0.6-0.8 0.4-0.2 0.9-0.5 0.9-1.6 0-1.3-1.1-2.4-2.6-2.3-1.1 0-2.9 1.1-2.8 3.1s2 3.6 4.8 3.5c1.5-0.1 4.9-0.7 8.3-4.7 3.9-4.6 5-9.8 5.8-13.7l0.9-5.1c0.5 0.1 1.1 0.1 1.7 0.1 4.9 0.1 7.3-2.4 7.3-4.3 0-1.1-0.7-2.2-1.8-2.2-0.8 0-1.7 0.5-1.9 1.6-0.2 1 1.5 1.9 0.2 2.8-1 0.6-2.8 1.1-5.2 0.7l0.5-2.5c0.9-4.7 2.1-10.6 6.4-10.7 0.3 0 1.5 0 1.5 0.8 0 0.3-0.1 0.3-0.4 0.9-0.3 0.5-0.4 0.8-0.4 1.3 0 1.2 1 2 2.3 2 1.8-0.1 2.3-1.8 2.3-2.7 0-1.9-2.3-3.3-5.2-3.2z" fill="#fff"/>
		<path d="m663.6 444.8l-22-21.4-13 9.9-7.2-3.6v-29.1l7.2-3.6 13 9.9 22-21.4 15.1 6.1v47.2l-15.1 6" fill="#fff"/>
		<path d="m674.9 394.2l-10.4-4.2-22.5 22-13.8-10.5-3 1.5v24.4l3 1.5 13.8-10.5 22.6 21.9 10.4-4.2-0.1-41.9zm-45.2 26.7v-11.5l6.4 5.7-6.4 5.8zm20.4-5.7l12.7-9.5v19.1l-12.7-9.6z" fill="#68217A"/>
		<path d="m739.9 398.1h46.9c3 0 5.4 2.4 5.4 5.4v17.9c0 3-2.4 5.4-5.4 5.4h-16.8l2.3 5.7-10.1-5.7h-22.2c-3 0-5.4-2.4-5.4-5.4v-17.9c-0.1-3 2.3-5.4 5.3-5.4z" fill="#9B5C8F"/>
		<path d="m737.8 402.9c0.3-0.4 0.8-0.7 1.5-0.7 1.2-0.1 1.9 0.5 2 1.7 0.7 4.9 1.5 9 2.4 12.4l5.1-9.8c0.5-0.9 1.1-1.4 1.8-1.4 1-0.1 1.7 0.6 1.9 2 0.6 3.1 1.3 5.8 2.2 8 0.6-5.9 1.6-10.2 3.1-12.9 0.4-0.7 0.9-1 1.5-1 0.5 0 1 0.1 1.5 0.5 0.4 0.4 0.7 0.8 0.7 1.3 0 0.4 0 0.8-0.2 1.1-0.9 1.7-1.7 4.5-2.3 8.5-0.6 3.8-0.8 6.8-0.7 8.9 0 0.6 0 1.1-0.3 1.5-0.3 0.5-0.7 0.8-1.2 0.8-0.6 0-1.2-0.2-1.8-0.9-2.2-2.2-3.9-5.5-5.2-10-1.5 3-2.6 5.2-3.4 6.7-1.4 2.6-2.6 4-3.5 4.1-0.6 0-1.2-0.5-1.6-1.6-1.2-3.1-2.5-9-3.9-17.8-0.1-0.4 0.1-0.9 0.4-1.4zm50.3 3.7c-0.8-1.5-2.1-2.4-3.7-2.7-0.4-0.1-0.9-0.1-1.3-0.1-2.2 0-4.1 1.2-5.5 3.5-1.2 2-1.8 4.2-1.8 6.6 0 1.8 0.4 3.3 1.1 4.6 0.8 1.5 2.1 2.4 3.7 2.7 0.4 0.1 0.9 0.1 1.3 0.1 2.3 0 4.1-1.2 5.5-3.5 1.2-2 1.8-4.2 1.8-6.6 0.1-1.8-0.3-3.3-1.1-4.6zm-2.9 6.5c-0.3 1.5-0.9 2.7-1.8 3.5-0.7 0.6-1.3 0.9-1.9 0.8s-1-0.6-1.4-1.5c-0.3-0.7-0.4-1.5-0.4-2.1s0-1.2 0.2-1.7c0.2-1 0.6-1.9 1.2-2.8 0.8-1.1 1.6-1.6 2.4-1.5 0.6 0.1 1 0.6 1.4 1.5 0.3 0.7 0.4 1.5 0.4 2.1s0 1.2-0.1 1.7zm-11.7-6.5c-0.8-1.5-2.1-2.4-3.7-2.7-0.4-0.1-0.9-0.1-1.3-0.1-2.2 0-4.1 1.2-5.5 3.5-1.2 2-1.8 4.2-1.8 6.6 0 1.8 0.4 3.3 1.1 4.6 0.8 1.5 2.1 2.4 3.7 2.7 0.4 0.1 0.9 0.1 1.3 0.1 2.3 0 4.1-1.2 5.5-3.5 1.2-2 1.8-4.2 1.8-6.6 0-1.8-0.4-3.3-1.1-4.6zm-3 6.5c-0.3 1.5-0.9 2.7-1.8 3.5-0.7 0.6-1.3 0.9-1.9 0.8s-1-0.6-1.4-1.5c-0.3-0.7-0.4-1.5-0.4-2.1s0-1.2 0.2-1.7c0.2-1 0.6-1.9 1.2-2.8 0.8-1.1 1.6-1.6 2.4-1.5 0.6 0.1 1 0.6 1.4 1.5 0.3 0.7 0.4 1.5 0.4 2.1 0.1 0.6 0 1.2-0.1 1.7z" fill="#fff"/>
		<path d="m852 415.2c0 9.7 5.7 18.2 13.9 22.1l-11.7-32.2c-1.4 3.1-2.2 6.5-2.2 10.1zm41.2-1.2c0-3-1.1-5.1-2-6.8-1.2-2-2.4-3.7-2.4-5.8 0-2.3 1.7-4.4 4.1-4.4h0.3c-4.4-4-10.2-6.5-16.6-6.5-8.6 0-16.2 4.4-20.6 11.1h1.6c2.6 0 6.6-0.3 6.6-0.3 1.3-0.1 1.5 1.9 0.2 2 0 0-1.3 0.2-2.8 0.2l9 26.7 5.4-16.2-3.8-10.5-2.6-0.2c-1.3-0.1-1.2-2.1 0.2-2 0 0 4.1 0.3 6.5 0.3 2.6 0 6.6-0.3 6.6-0.3 1.3-0.1 1.5 1.9 0.2 2 0 0-1.3 0.2-2.8 0.2l8.9 26.5 2.5-8.2c0.7-3.3 1.5-5.7 1.5-7.8zm-16.2 3.3l-7.4 21.5c2.2 0.6 4.5 1 7 1 2.9 0 5.6-0.5 8.2-1.4-0.1-0.1-0.1-0.2-0.2-0.3l-7.6-20.8zm21.2-13.9c0.1 0.8 0.2 1.6 0.2 2.5 0 2.5-0.5 5.3-1.9 8.8l-7.5 21.7c7.3-4.3 12.2-12.2 12.2-21.3 0-4.2-1.1-8.2-3-11.7zm-21.6-16.9c-15.8 0-28.7 12.9-28.7 28.7s12.9 28.7 28.7 28.7 28.7-12.9 28.7-28.7c0-15.8-12.9-28.7-28.7-28.7zm0 56.1c-15.1 0-27.4-12.3-27.4-27.4s12.3-27.4 27.4-27.4 27.4 12.3 27.4 27.4-12.3 27.4-27.4 27.4z" fill="#464342"/>
</svg>
